<?xml version="1.0" encoding="UTF-8" standalone="no"?>
<!DOCTYPE svg PUBLIC "-//W3C//DTD SVG 1.1//EN"
 "http://www.w3.org/Graphics/SVG/1.1/DTD/svg11.dtd">
<!-- Generated by graphviz version 2.44.1 (20200629.0846)
 -->
<!-- Title: G Pages: 1 -->
<svg width="3398pt" height="985pt"
 viewBox="0.00 0.00 3398.20 984.91" xmlns="http://www.w3.org/2000/svg" xmlns:xlink="http://www.w3.org/1999/xlink">
<g id="graph0" class="graph" transform="scale(1 1) rotate(0) translate(21.6 963.31)">
<title>G</title>
<polygon fill="#111111" stroke="transparent" points="-21.6,21.6 -21.6,-963.31 3376.6,-963.31 3376.6,21.6 -21.6,21.6"/>
<!-- ../../core/src/component.ts -->
<g id="node1" class="node">
<title>../../core/src/component.ts</title>
<path fill="none" stroke="#ff6c60" d="M1488.33,-604.5C1488.33,-604.5 1330.67,-604.5 1330.67,-604.5 1326.83,-604.5 1323,-600.67 1323,-596.83 1323,-596.83 1323,-589.17 1323,-589.17 1323,-585.33 1326.83,-581.5 1330.67,-581.5 1330.67,-581.5 1488.33,-581.5 1488.33,-581.5 1492.17,-581.5 1496,-585.33 1496,-589.17 1496,-589.17 1496,-596.83 1496,-596.83 1496,-600.67 1492.17,-604.5 1488.33,-604.5"/>
<text text-anchor="middle" x="1409.5" y="-589.3" font-family="Arial" font-size="14.00" fill="#ff6c60">../../core/src/component.ts</text>
</g>
<!-- ../../core/src/componentOptions.ts -->
<g id="node2" class="node">
<title>../../core/src/componentOptions.ts</title>
<path fill="none" stroke="#ff6c60" d="M1744.33,-504.5C1744.33,-504.5 1539.67,-504.5 1539.67,-504.5 1535.83,-504.5 1532,-500.67 1532,-496.83 1532,-496.83 1532,-489.17 1532,-489.17 1532,-485.33 1535.83,-481.5 1539.67,-481.5 1539.67,-481.5 1744.33,-481.5 1744.33,-481.5 1748.17,-481.5 1752,-485.33 1752,-489.17 1752,-489.17 1752,-496.83 1752,-496.83 1752,-500.67 1748.17,-504.5 1744.33,-504.5"/>
<text text-anchor="middle" x="1642" y="-489.3" font-family="Arial" font-size="14.00" fill="#ff6c60">../../core/src/componentOptions.ts</text>
</g>
<!-- ../../core/src/component.ts&#45;&gt;../../core/src/componentOptions.ts -->
<g id="edge1" class="edge">
<title>../../core/src/component.ts&#45;&gt;../../core/src/componentOptions.ts</title>
<path fill="none" stroke="#757575" d="M1428.59,-581.31C1463.58,-562.98 1541.61,-528.54 1592.72,-508.33"/>
<polygon fill="#757575" stroke="#757575" points="1594.21,-511.51 1602.25,-504.61 1591.66,-504.99 1594.21,-511.51"/>
</g>
<!-- ../../core/src/componentWatch.ts -->
<g id="node3" class="node">
<title>../../core/src/componentWatch.ts</title>
<path fill="none" stroke="#ff6c60" d="M2413.83,-815.5C2413.83,-815.5 2218.17,-815.5 2218.17,-815.5 2214.33,-815.5 2210.5,-811.67 2210.5,-807.83 2210.5,-807.83 2210.5,-800.17 2210.5,-800.17 2210.5,-796.33 2214.33,-792.5 2218.17,-792.5 2218.17,-792.5 2413.83,-792.5 2413.83,-792.5 2417.67,-792.5 2421.5,-796.33 2421.5,-800.17 2421.5,-800.17 2421.5,-807.83 2421.5,-807.83 2421.5,-811.67 2417.67,-815.5 2413.83,-815.5"/>
<text text-anchor="middle" x="2316" y="-800.3" font-family="Arial" font-size="14.00" fill="#ff6c60">../../core/src/componentWatch.ts</text>
</g>
<!-- ../../core/src/component.ts&#45;&gt;../../core/src/componentWatch.ts -->
<g id="edge2" class="edge">
<title>../../core/src/component.ts&#45;&gt;../../core/src/componentWatch.ts</title>
<path fill="none" stroke="#757575" d="M1413.46,-604.74C1422.37,-642.79 1453.34,-760.28 1532,-807 1641.6,-872.09 2010.76,-835.39 2200.42,-814.63"/>
<polygon fill="#757575" stroke="#757575" points="2200.86,-818.1 2210.42,-813.53 2200.1,-811.14 2200.86,-818.1"/>
</g>
<!-- ../../core/src/utils.ts -->
<g id="node4" class="node">
<title>../../core/src/utils.ts</title>
<path fill="none" stroke="#cfffac" d="M2608.83,-579.5C2608.83,-579.5 2495.17,-579.5 2495.17,-579.5 2491.33,-579.5 2487.5,-575.67 2487.5,-571.83 2487.5,-571.83 2487.5,-564.17 2487.5,-564.17 2487.5,-560.33 2491.33,-556.5 2495.17,-556.5 2495.17,-556.5 2608.83,-556.5 2608.83,-556.5 2612.67,-556.5 2616.5,-560.33 2616.5,-564.17 2616.5,-564.17 2616.5,-571.83 2616.5,-571.83 2616.5,-575.67 2612.67,-579.5 2608.83,-579.5"/>
<text text-anchor="middle" x="2552" y="-564.3" font-family="Arial" font-size="14.00" fill="#cfffac">../../core/src/utils.ts</text>
</g>
<!-- ../../core/src/component.ts&#45;&gt;../../core/src/utils.ts -->
<g id="edge3" class="edge">
<title>../../core/src/component.ts&#45;&gt;../../core/src/utils.ts</title>
<path fill="none" stroke="#757575" d="M1417.17,-604.69C1433.06,-631.29 1476.05,-696.07 1532,-723 1634.83,-772.49 1673.96,-738.55 1788,-743 2076.67,-754.26 2182.47,-813.1 2434,-671 2455.11,-659.07 2452.29,-646.56 2470,-630 2487.35,-613.77 2508.76,-597.53 2525.21,-585.74"/>
<polygon fill="#757575" stroke="#757575" points="2527.64,-588.31 2533.78,-579.68 2523.6,-582.59 2527.64,-588.31"/>
</g>
<!-- ../../core/src/vdom.ts -->
<g id="node5" class="node">
<title>../../core/src/vdom.ts</title>
<path fill="none" stroke="#ff6c60" d="M1919.33,-317.5C1919.33,-317.5 1795.67,-317.5 1795.67,-317.5 1791.83,-317.5 1788,-313.67 1788,-309.83 1788,-309.83 1788,-302.17 1788,-302.17 1788,-298.33 1791.83,-294.5 1795.67,-294.5 1795.67,-294.5 1919.33,-294.5 1919.33,-294.5 1923.17,-294.5 1927,-298.33 1927,-302.17 1927,-302.17 1927,-309.83 1927,-309.83 1927,-313.67 1923.17,-317.5 1919.33,-317.5"/>
<text text-anchor="middle" x="1857.5" y="-302.3" font-family="Arial" font-size="14.00" fill="#ff6c60">../../core/src/vdom.ts</text>
</g>
<!-- ../../core/src/component.ts&#45;&gt;../../core/src/vdom.ts -->
<g id="edge4" class="edge">
<title>../../core/src/component.ts&#45;&gt;../../core/src/vdom.ts</title>
<path fill="none" stroke="#757575" d="M1412.95,-581.31C1422.52,-544.86 1460.42,-435.6 1532,-382 1551.8,-367.17 1688.22,-334.59 1777.76,-316.98"/>
<polygon fill="#757575" stroke="#757575" points="1778.48,-320.41 1787.63,-315.07 1777.14,-313.54 1778.48,-320.41"/>
</g>
<!-- ../../observer/src/index.ts -->
<g id="node6" class="node">
<title>../../observer/src/index.ts</title>
<path fill="none" stroke="#ff6c60" d="M2626.33,-661.5C2626.33,-661.5 2477.67,-661.5 2477.67,-661.5 2473.83,-661.5 2470,-657.67 2470,-653.83 2470,-653.83 2470,-646.17 2470,-646.17 2470,-642.33 2473.83,-638.5 2477.67,-638.5 2477.67,-638.5 2626.33,-638.5 2626.33,-638.5 2630.17,-638.5 2634,-642.33 2634,-646.17 2634,-646.17 2634,-653.83 2634,-653.83 2634,-657.67 2630.17,-661.5 2626.33,-661.5"/>
<text text-anchor="middle" x="2552" y="-646.3" font-family="Arial" font-size="14.00" fill="#ff6c60">../../observer/src/index.ts</text>
</g>
<!-- ../../core/src/component.ts&#45;&gt;../../observer/src/index.ts -->
<g id="edge5" class="edge">
<title>../../core/src/component.ts&#45;&gt;../../observer/src/index.ts</title>
<path fill="none" stroke="#757575" d="M1411.9,-604.73C1417.62,-647 1443.3,-792.39 1532,-857 1649.41,-942.53 1711.24,-896 1856.5,-896 1856.5,-896 1856.5,-896 2063.5,-896 2231.16,-896 2294.26,-917.64 2434,-825 2491.91,-786.61 2528.34,-708.72 2543.25,-671.17"/>
<polygon fill="#757575" stroke="#757575" points="2546.56,-672.31 2546.89,-661.72 2540.03,-669.8 2546.56,-672.31"/>
</g>
<!-- ../../core/src/componentOptions.ts&#45;&gt;../../core/src/component.ts -->
<g id="edge10" class="edge">
<title>../../core/src/componentOptions.ts&#45;&gt;../../core/src/component.ts</title>
<path fill="none" stroke="#757575" d="M1623.16,-504.56C1588.26,-522.88 1509.86,-557.48 1458.63,-577.73"/>
<polygon fill="#757575" stroke="#757575" points="1457.12,-574.56 1449.08,-581.45 1459.67,-581.08 1457.12,-574.56"/>
</g>
<!-- ../../core/src/componentOptions.ts&#45;&gt;../../core/src/vdom.ts -->
<g id="edge11" class="edge">
<title>../../core/src/componentOptions.ts&#45;&gt;../../core/src/vdom.ts</title>
<path fill="none" stroke="#757575" d="M1652.73,-481.45C1684.13,-449.57 1783.47,-362.04 1830.86,-323.88"/>
<polygon fill="#757575" stroke="#757575" points="1833.16,-326.52 1838.81,-317.56 1828.81,-321.04 1833.16,-326.52"/>
</g>
<!-- ../../core/src/componentWatch.ts&#45;&gt;../../core/src/component.ts -->
<g id="edge31" class="edge">
<title>../../core/src/componentWatch.ts&#45;&gt;../../core/src/component.ts</title>
<path fill="none" stroke="#757575" d="M2263.45,-815.54C2109.42,-842.33 1655.61,-898.42 1532,-825 1454.1,-778.73 1422.98,-663.06 1413.73,-614.56"/>
<polygon fill="#757575" stroke="#757575" points="1417.14,-613.75 1411.95,-604.51 1410.24,-614.97 1417.14,-613.75"/>
</g>
<!-- ../../core/src/componentWatch.ts&#45;&gt;../../core/src/componentOptions.ts -->
<g id="edge32" class="edge">
<title>../../core/src/componentWatch.ts&#45;&gt;../../core/src/componentOptions.ts</title>
<path fill="none" stroke="#757575" d="M2289.14,-792.4C2212.45,-757.96 1979.66,-653.08 1788,-563 1749.36,-544.84 1705.21,-523.43 1675.88,-509.12"/>
<polygon fill="#757575" stroke="#757575" points="1677.06,-505.79 1666.54,-504.55 1673.98,-512.08 1677.06,-505.79"/>
</g>
<!-- ../../core/src/componentWatch.ts&#45;&gt;../../observer/src/index.ts -->
<g id="edge33" class="edge">
<title>../../core/src/componentWatch.ts&#45;&gt;../../observer/src/index.ts</title>
<path fill="none" stroke="#757575" d="M2399.34,-792.43C2411.43,-788.84 2423.37,-784.15 2434,-778 2480.8,-750.93 2519.51,-698.86 2538.45,-670.18"/>
<polygon fill="#757575" stroke="#757575" points="2541.41,-672.05 2543.89,-661.75 2535.53,-668.25 2541.41,-672.05"/>
</g>
<!-- ../../core/src/vdom.ts&#45;&gt;../../core/src/component.ts -->
<g id="edge53" class="edge">
<title>../../core/src/vdom.ts&#45;&gt;../../core/src/component.ts</title>
<path fill="none" stroke="#757575" d="M1823.86,-317.58C1746.31,-339.11 1555.69,-382.26 1532,-400 1470.98,-445.69 1434.43,-531.85 1419.05,-571.92"/>
<polygon fill="#757575" stroke="#757575" points="1415.77,-570.68 1415.51,-581.27 1422.32,-573.16 1415.77,-570.68"/>
</g>
<!-- ../../core/src/vdom.ts&#45;&gt;../../core/src/componentOptions.ts -->
<g id="edge54" class="edge">
<title>../../core/src/vdom.ts&#45;&gt;../../core/src/componentOptions.ts</title>
<path fill="none" stroke="#757575" d="M1846.37,-317.96C1814.56,-350.14 1716.01,-436.96 1668.76,-475.02"/>
<polygon fill="#757575" stroke="#757575" points="1666.48,-472.36 1660.84,-481.32 1670.84,-477.84 1666.48,-472.36"/>
</g>
<!-- ../../core/src/componentProps.ts -->
<g id="node8" class="node">
<title>../../core/src/componentProps.ts</title>
<path fill="none" stroke="#ff6c60" d="M2412.33,-538.5C2412.33,-538.5 2219.67,-538.5 2219.67,-538.5 2215.83,-538.5 2212,-534.67 2212,-530.83 2212,-530.83 2212,-523.17 2212,-523.17 2212,-519.33 2215.83,-515.5 2219.67,-515.5 2219.67,-515.5 2412.33,-515.5 2412.33,-515.5 2416.17,-515.5 2420,-519.33 2420,-523.17 2420,-523.17 2420,-530.83 2420,-530.83 2420,-534.67 2416.17,-538.5 2412.33,-538.5"/>
<text text-anchor="middle" x="2316" y="-523.3" font-family="Arial" font-size="14.00" fill="#ff6c60">../../core/src/componentProps.ts</text>
</g>
<!-- ../../core/src/vdom.ts&#45;&gt;../../core/src/componentProps.ts -->
<g id="edge55" class="edge">
<title>../../core/src/vdom.ts&#45;&gt;../../core/src/componentProps.ts</title>
<path fill="none" stroke="#757575" d="M1871.56,-317.7C1890.6,-334.31 1927.58,-364.94 1963,-385 1970.26,-389.11 2186.61,-475.7 2276.46,-511.61"/>
<polygon fill="#757575" stroke="#757575" points="2275.43,-514.96 2286.01,-515.42 2278.03,-508.46 2275.43,-514.96"/>
</g>
<!-- ../../core/src/componentUtils.ts -->
<g id="node11" class="node">
<title>../../core/src/componentUtils.ts</title>
<path fill="none" stroke="#ff6c60" d="M2154.33,-498.5C2154.33,-498.5 1970.67,-498.5 1970.67,-498.5 1966.83,-498.5 1963,-494.67 1963,-490.83 1963,-490.83 1963,-483.17 1963,-483.17 1963,-479.33 1966.83,-475.5 1970.67,-475.5 1970.67,-475.5 2154.33,-475.5 2154.33,-475.5 2158.17,-475.5 2162,-479.33 2162,-483.17 2162,-483.17 2162,-490.83 2162,-490.83 2162,-494.67 2158.17,-498.5 2154.33,-498.5"/>
<text text-anchor="middle" x="2062.5" y="-483.3" font-family="Arial" font-size="14.00" fill="#ff6c60">../../core/src/componentUtils.ts</text>
</g>
<!-- ../../core/src/vdom.ts&#45;&gt;../../core/src/componentUtils.ts -->
<g id="edge56" class="edge">
<title>../../core/src/vdom.ts&#45;&gt;../../core/src/componentUtils.ts</title>
<path fill="none" stroke="#757575" d="M1884.62,-317.71C1898.68,-328.28 1915.45,-344.05 1927,-361 1951.49,-396.95 1930.48,-423.12 1963,-452 1974.83,-462.5 1990.41,-468.84 2005.68,-473.02"/>
<polygon fill="#757575" stroke="#757575" points="2005.08,-476.48 2015.62,-475.48 2006.76,-469.68 2005.08,-476.48"/>
</g>
<!-- ../../core/src/flags.ts -->
<g id="node12" class="node">
<title>../../core/src/flags.ts</title>
<path fill="none" stroke="#cfffac" d="M2611.33,-87.5C2611.33,-87.5 2492.67,-87.5 2492.67,-87.5 2488.83,-87.5 2485,-83.67 2485,-79.83 2485,-79.83 2485,-72.17 2485,-72.17 2485,-68.33 2488.83,-64.5 2492.67,-64.5 2492.67,-64.5 2611.33,-64.5 2611.33,-64.5 2615.17,-64.5 2619,-68.33 2619,-72.17 2619,-72.17 2619,-79.83 2619,-79.83 2619,-83.67 2615.17,-87.5 2611.33,-87.5"/>
<text text-anchor="middle" x="2552" y="-72.3" font-family="Arial" font-size="14.00" fill="#cfffac">../../core/src/flags.ts</text>
</g>
<!-- ../../core/src/vdom.ts&#45;&gt;../../core/src/flags.ts -->
<g id="edge57" class="edge">
<title>../../core/src/vdom.ts&#45;&gt;../../core/src/flags.ts</title>
<path fill="none" stroke="#757575" d="M1893.32,-294.44C2008.66,-256.13 2378.23,-133.38 2506.58,-90.75"/>
<polygon fill="#757575" stroke="#757575" points="2507.73,-94.06 2516.11,-87.59 2505.52,-87.42 2507.73,-94.06"/>
</g>
<!-- ../../observer/src/autorun.ts -->
<g id="node16" class="node">
<title>../../observer/src/autorun.ts</title>
<path fill="none" stroke="#ff6c60" d="M3117.33,-701.5C3117.33,-701.5 2955.67,-701.5 2955.67,-701.5 2951.83,-701.5 2948,-697.67 2948,-693.83 2948,-693.83 2948,-686.17 2948,-686.17 2948,-682.33 2951.83,-678.5 2955.67,-678.5 2955.67,-678.5 3117.33,-678.5 3117.33,-678.5 3121.17,-678.5 3125,-682.33 3125,-686.17 3125,-686.17 3125,-693.83 3125,-693.83 3125,-697.67 3121.17,-701.5 3117.33,-701.5"/>
<text text-anchor="middle" x="3036.5" y="-686.3" font-family="Arial" font-size="14.00" fill="#ff6c60">../../observer/src/autorun.ts</text>
</g>
<!-- ../../observer/src/index.ts&#45;&gt;../../observer/src/autorun.ts -->
<g id="edge69" class="edge">
<title>../../observer/src/index.ts&#45;&gt;../../observer/src/autorun.ts</title>
<path fill="none" stroke="#757575" d="M2568.63,-661.52C2590.16,-676.6 2630.74,-702.24 2670,-712 2777.09,-738.62 2907,-719.02 2979.54,-703.65"/>
<polygon fill="#757575" stroke="#757575" points="2980.36,-707.05 2989.39,-701.51 2978.88,-700.21 2980.36,-707.05"/>
</g>
<!-- ../../observer/src/operations.ts -->
<g id="node17" class="node">
<title>../../observer/src/operations.ts</title>
<path fill="none" stroke="#cfffac" d="M3347.33,-640.5C3347.33,-640.5 3168.67,-640.5 3168.67,-640.5 3164.83,-640.5 3161,-636.67 3161,-632.83 3161,-632.83 3161,-625.17 3161,-625.17 3161,-621.33 3164.83,-617.5 3168.67,-617.5 3168.67,-617.5 3347.33,-617.5 3347.33,-617.5 3351.17,-617.5 3355,-621.33 3355,-625.17 3355,-625.17 3355,-632.83 3355,-632.83 3355,-636.67 3351.17,-640.5 3347.33,-640.5"/>
<text text-anchor="middle" x="3258" y="-625.3" font-family="Arial" font-size="14.00" fill="#cfffac">../../observer/src/operations.ts</text>
</g>
<!-- ../../observer/src/index.ts&#45;&gt;../../observer/src/operations.ts -->
<g id="edge74" class="edge">
<title>../../observer/src/index.ts&#45;&gt;../../observer/src/operations.ts</title>
<path fill="none" stroke="#757575" d="M2608.99,-638.47C2628.24,-635.03 2649.98,-631.72 2670,-630 2837.6,-615.63 3033.11,-619.38 3150.86,-623.85"/>
<polygon fill="#757575" stroke="#757575" points="3150.83,-627.35 3160.96,-624.24 3151.1,-620.36 3150.83,-627.35"/>
</g>
<!-- ../../observer/src/state.ts -->
<g id="node18" class="node">
<title>../../observer/src/state.ts</title>
<path fill="none" stroke="#ff6c60" d="M3330.83,-701.5C3330.83,-701.5 3185.17,-701.5 3185.17,-701.5 3181.33,-701.5 3177.5,-697.67 3177.5,-693.83 3177.5,-693.83 3177.5,-686.17 3177.5,-686.17 3177.5,-682.33 3181.33,-678.5 3185.17,-678.5 3185.17,-678.5 3330.83,-678.5 3330.83,-678.5 3334.67,-678.5 3338.5,-682.33 3338.5,-686.17 3338.5,-686.17 3338.5,-693.83 3338.5,-693.83 3338.5,-697.67 3334.67,-701.5 3330.83,-701.5"/>
<text text-anchor="middle" x="3258" y="-686.3" font-family="Arial" font-size="14.00" fill="#ff6c60">../../observer/src/state.ts</text>
</g>
<!-- ../../observer/src/index.ts&#45;&gt;../../observer/src/state.ts -->
<g id="edge75" class="edge">
<title>../../observer/src/index.ts&#45;&gt;../../observer/src/state.ts</title>
<path fill="none" stroke="#757575" d="M2564.28,-661.62C2583.73,-680.72 2625.77,-718.04 2670,-732 2863.82,-793.16 3110.84,-733.91 3211.37,-704.45"/>
<polygon fill="#757575" stroke="#757575" points="3212.61,-707.74 3221.2,-701.53 3210.62,-701.03 3212.61,-707.74"/>
</g>
<!-- ../../observer/src/baseHandlers.ts -->
<g id="node19" class="node">
<title>../../observer/src/baseHandlers.ts</title>
<path fill="none" stroke="#ff6c60" d="M2890.83,-581.5C2890.83,-581.5 2691.17,-581.5 2691.17,-581.5 2687.33,-581.5 2683.5,-577.67 2683.5,-573.83 2683.5,-573.83 2683.5,-566.17 2683.5,-566.17 2683.5,-562.33 2687.33,-558.5 2691.17,-558.5 2691.17,-558.5 2890.83,-558.5 2890.83,-558.5 2894.67,-558.5 2898.5,-562.33 2898.5,-566.17 2898.5,-566.17 2898.5,-573.83 2898.5,-573.83 2898.5,-577.67 2894.67,-581.5 2890.83,-581.5"/>
<text text-anchor="middle" x="2791" y="-566.3" font-family="Arial" font-size="14.00" fill="#ff6c60">../../observer/src/baseHandlers.ts</text>
</g>
<!-- ../../observer/src/index.ts&#45;&gt;../../observer/src/baseHandlers.ts -->
<g id="edge70" class="edge">
<title>../../observer/src/index.ts&#45;&gt;../../observer/src/baseHandlers.ts</title>
<path fill="none" stroke="#757575" d="M2564.28,-638.45C2584.77,-623.7 2629.69,-600.49 2670,-587 2672.61,-586.13 2675.26,-585.27 2677.95,-584.45"/>
<polygon fill="#757575" stroke="#757575" points="2679.18,-587.73 2687.78,-581.55 2677.2,-581.02 2679.18,-587.73"/>
</g>
<!-- ../../observer/src/lock.ts -->
<g id="node20" class="node">
<title>../../observer/src/lock.ts</title>
<path fill="none" stroke="#cfffac" d="M3106.33,-542.5C3106.33,-542.5 2966.67,-542.5 2966.67,-542.5 2962.83,-542.5 2959,-538.67 2959,-534.83 2959,-534.83 2959,-527.17 2959,-527.17 2959,-523.33 2962.83,-519.5 2966.67,-519.5 2966.67,-519.5 3106.33,-519.5 3106.33,-519.5 3110.17,-519.5 3114,-523.33 3114,-527.17 3114,-527.17 3114,-534.83 3114,-534.83 3114,-538.67 3110.17,-542.5 3106.33,-542.5"/>
<text text-anchor="middle" x="3036.5" y="-527.3" font-family="Arial" font-size="14.00" fill="#cfffac">../../observer/src/lock.ts</text>
</g>
<!-- ../../observer/src/index.ts&#45;&gt;../../observer/src/lock.ts -->
<g id="edge73" class="edge">
<title>../../observer/src/index.ts&#45;&gt;../../observer/src/lock.ts</title>
<path fill="none" stroke="#757575" d="M2570.13,-638.45C2587.02,-626.76 2613.24,-607.78 2634,-589 2651.49,-573.17 2648.64,-560.02 2670,-550 2760.42,-507.58 2877.61,-510.09 2954.6,-518.35"/>
<polygon fill="#757575" stroke="#757575" points="2954.39,-521.85 2964.72,-519.49 2955.17,-514.89 2954.39,-521.85"/>
</g>
<!-- ../../observer/src/collectionHandlers.ts -->
<g id="node21" class="node">
<title>../../observer/src/collectionHandlers.ts</title>
<path fill="none" stroke="#ff6c60" d="M2904.33,-661.5C2904.33,-661.5 2677.67,-661.5 2677.67,-661.5 2673.83,-661.5 2670,-657.67 2670,-653.83 2670,-653.83 2670,-646.17 2670,-646.17 2670,-642.33 2673.83,-638.5 2677.67,-638.5 2677.67,-638.5 2904.33,-638.5 2904.33,-638.5 2908.17,-638.5 2912,-642.33 2912,-646.17 2912,-646.17 2912,-653.83 2912,-653.83 2912,-657.67 2908.17,-661.5 2904.33,-661.5"/>
<text text-anchor="middle" x="2791" y="-646.3" font-family="Arial" font-size="14.00" fill="#ff6c60">../../observer/src/collectionHandlers.ts</text>
</g>
<!-- ../../observer/src/index.ts&#45;&gt;../../observer/src/collectionHandlers.ts -->
<g id="edge71" class="edge">
<title>../../observer/src/index.ts&#45;&gt;../../observer/src/collectionHandlers.ts</title>
<path fill="none" stroke="#757575" d="M2634.23,-643.56C2642.51,-643.42 2651.07,-643.32 2659.7,-643.28"/>
<polygon fill="#757575" stroke="#757575" points="2659.88,-646.78 2669.87,-643.25 2659.86,-639.78 2659.88,-646.78"/>
</g>
<!-- ../../observer/src/computed.ts -->
<g id="node22" class="node">
<title>../../observer/src/computed.ts</title>
<path fill="none" stroke="#ff6c60" d="M2878.83,-702.5C2878.83,-702.5 2703.17,-702.5 2703.17,-702.5 2699.33,-702.5 2695.5,-698.67 2695.5,-694.83 2695.5,-694.83 2695.5,-687.17 2695.5,-687.17 2695.5,-683.33 2699.33,-679.5 2703.17,-679.5 2703.17,-679.5 2878.83,-679.5 2878.83,-679.5 2882.67,-679.5 2886.5,-683.33 2886.5,-687.17 2886.5,-687.17 2886.5,-694.83 2886.5,-694.83 2886.5,-698.67 2882.67,-702.5 2878.83,-702.5"/>
<text text-anchor="middle" x="2791" y="-687.3" font-family="Arial" font-size="14.00" fill="#ff6c60">../../observer/src/computed.ts</text>
</g>
<!-- ../../observer/src/index.ts&#45;&gt;../../observer/src/computed.ts -->
<g id="edge72" class="edge">
<title>../../observer/src/index.ts&#45;&gt;../../observer/src/computed.ts</title>
<path fill="none" stroke="#757575" d="M2634.17,-655.8C2646.18,-657.84 2658.41,-659.99 2670,-662 2697.74,-666.8 2729.12,-672.02 2752.83,-677.2"/>
<polygon fill="#757575" stroke="#757575" points="2752.29,-680.66 2762.82,-679.49 2753.85,-673.84 2752.29,-680.66"/>
</g>
<!-- ../../core/src/componentComputed.ts -->
<g id="node7" class="node">
<title>../../core/src/componentComputed.ts</title>
<path fill="none" stroke="#ff6c60" d="M2426.33,-661.5C2426.33,-661.5 2205.67,-661.5 2205.67,-661.5 2201.83,-661.5 2198,-657.67 2198,-653.83 2198,-653.83 2198,-646.17 2198,-646.17 2198,-642.33 2201.83,-638.5 2205.67,-638.5 2205.67,-638.5 2426.33,-638.5 2426.33,-638.5 2430.17,-638.5 2434,-642.33 2434,-646.17 2434,-646.17 2434,-653.83 2434,-653.83 2434,-657.67 2430.17,-661.5 2426.33,-661.5"/>
<text text-anchor="middle" x="2316" y="-646.3" font-family="Arial" font-size="14.00" fill="#ff6c60">../../core/src/componentComputed.ts</text>
</g>
<!-- ../../core/src/componentComputed.ts&#45;&gt;../../core/src/component.ts -->
<g id="edge6" class="edge">
<title>../../core/src/componentComputed.ts&#45;&gt;../../core/src/component.ts</title>
<path fill="none" stroke="#757575" d="M2277.31,-661.57C2161.82,-695.01 1804.25,-783.57 1532,-689 1488.38,-673.85 1448.6,-635.82 1427.14,-612.43"/>
<polygon fill="#757575" stroke="#757575" points="1429.62,-609.94 1420.34,-604.82 1424.4,-614.61 1429.62,-609.94"/>
</g>
<!-- ../../core/src/componentComputed.ts&#45;&gt;../../core/src/componentOptions.ts -->
<g id="edge7" class="edge">
<title>../../core/src/componentComputed.ts&#45;&gt;../../core/src/componentOptions.ts</title>
<path fill="none" stroke="#757575" d="M2242.76,-638.5C2227.92,-635.9 2212.42,-633.01 2198,-630 2011.74,-591.14 1793.19,-533.65 1695.18,-507.23"/>
<polygon fill="#757575" stroke="#757575" points="1695.8,-503.77 1685.23,-504.54 1693.97,-510.53 1695.8,-503.77"/>
</g>
<!-- ../../core/src/componentComputed.ts&#45;&gt;../../core/src/utils.ts -->
<g id="edge8" class="edge">
<title>../../core/src/componentComputed.ts&#45;&gt;../../core/src/utils.ts</title>
<path fill="none" stroke="#757575" d="M2403.41,-638.44C2413.84,-636.11 2424.25,-633.32 2434,-630 2467.04,-618.75 2502.05,-599.03 2525.07,-584.85"/>
<polygon fill="#757575" stroke="#757575" points="2526.95,-587.8 2533.57,-579.53 2523.23,-581.87 2526.95,-587.8"/>
</g>
<!-- ../../core/src/componentComputed.ts&#45;&gt;../../observer/src/index.ts -->
<g id="edge9" class="edge">
<title>../../core/src/componentComputed.ts&#45;&gt;../../observer/src/index.ts</title>
<path fill="none" stroke="#757575" d="M2434.34,-650C2442.86,-650 2451.37,-650 2459.69,-650"/>
<polygon fill="#757575" stroke="#757575" points="2459.75,-653.5 2469.75,-650 2459.75,-646.5 2459.75,-653.5"/>
</g>
<!-- ../../core/src/componentProps.ts&#45;&gt;../../core/src/component.ts -->
<g id="edge12" class="edge">
<title>../../core/src/componentProps.ts&#45;&gt;../../core/src/component.ts</title>
<path fill="none" stroke="#757575" d="M2211.7,-534.54C2035,-547.43 1677.23,-573.54 1506.01,-586.03"/>
<polygon fill="#757575" stroke="#757575" points="1505.72,-582.54 1496,-586.76 1506.23,-589.52 1505.72,-582.54"/>
</g>
<!-- ../../core/src/componentProps.ts&#45;&gt;../../core/src/componentOptions.ts -->
<g id="edge13" class="edge">
<title>../../core/src/componentProps.ts&#45;&gt;../../core/src/componentOptions.ts</title>
<path fill="none" stroke="#757575" d="M2211.81,-521.78C2090.64,-515.65 1890.04,-505.5 1762.3,-499.04"/>
<polygon fill="#757575" stroke="#757575" points="1762.25,-495.53 1752.09,-498.52 1761.9,-502.52 1762.25,-495.53"/>
</g>
<!-- ../../core/src/componentProps.ts&#45;&gt;../../core/src/utils.ts -->
<g id="edge14" class="edge">
<title>../../core/src/componentProps.ts&#45;&gt;../../core/src/utils.ts</title>
<path fill="none" stroke="#757575" d="M2382.8,-538.53C2412.2,-543.68 2446.96,-549.77 2477.22,-555.07"/>
<polygon fill="#757575" stroke="#757575" points="2476.85,-558.56 2487.3,-556.84 2478.06,-551.67 2476.85,-558.56"/>
</g>
<!-- ../../core/src/componentProps.ts&#45;&gt;../../observer/src/index.ts -->
<g id="edge15" class="edge">
<title>../../core/src/componentProps.ts&#45;&gt;../../observer/src/index.ts</title>
<path fill="none" stroke="#757575" d="M2412.78,-538.57C2420.18,-541.14 2427.35,-544.25 2434,-548 2455.12,-559.92 2452.22,-572.51 2470,-589 2487.21,-604.96 2508.46,-620.84 2524.88,-632.39"/>
<polygon fill="#757575" stroke="#757575" points="2523.23,-635.51 2533.44,-638.34 2527.22,-629.76 2523.23,-635.51"/>
</g>
<!-- ../../core/src/componentProxy.ts -->
<g id="node9" class="node">
<title>../../core/src/componentProxy.ts</title>
<path fill="none" stroke="#ff6c60" d="M2411.33,-579.5C2411.33,-579.5 2220.67,-579.5 2220.67,-579.5 2216.83,-579.5 2213,-575.67 2213,-571.83 2213,-571.83 2213,-564.17 2213,-564.17 2213,-560.33 2216.83,-556.5 2220.67,-556.5 2220.67,-556.5 2411.33,-556.5 2411.33,-556.5 2415.17,-556.5 2419,-560.33 2419,-564.17 2419,-564.17 2419,-571.83 2419,-571.83 2419,-575.67 2415.17,-579.5 2411.33,-579.5"/>
<text text-anchor="middle" x="2316" y="-564.3" font-family="Arial" font-size="14.00" fill="#ff6c60">../../core/src/componentProxy.ts</text>
</g>
<!-- ../../core/src/componentProxy.ts&#45;&gt;../../core/src/component.ts -->
<g id="edge16" class="edge">
<title>../../core/src/componentProxy.ts&#45;&gt;../../core/src/component.ts</title>
<path fill="none" stroke="#757575" d="M2246.12,-579.56C2151.88,-595.15 1987.54,-621.5 1927,-626 1751.93,-639.01 1706.01,-649.21 1532,-626 1505.39,-622.45 1476.34,-614.71 1453.33,-607.62"/>
<polygon fill="#757575" stroke="#757575" points="1454.12,-604.2 1443.53,-604.53 1452.02,-610.87 1454.12,-604.2"/>
</g>
<!-- ../../core/src/componentState.ts -->
<g id="node10" class="node">
<title>../../core/src/componentState.ts</title>
<path fill="none" stroke="#ff6c60" d="M2410.33,-620.5C2410.33,-620.5 2221.67,-620.5 2221.67,-620.5 2217.83,-620.5 2214,-616.67 2214,-612.83 2214,-612.83 2214,-605.17 2214,-605.17 2214,-601.33 2217.83,-597.5 2221.67,-597.5 2221.67,-597.5 2410.33,-597.5 2410.33,-597.5 2414.17,-597.5 2418,-601.33 2418,-605.17 2418,-605.17 2418,-612.83 2418,-612.83 2418,-616.67 2414.17,-620.5 2410.33,-620.5"/>
<text text-anchor="middle" x="2316" y="-605.3" font-family="Arial" font-size="14.00" fill="#ff6c60">../../core/src/componentState.ts</text>
</g>
<!-- ../../core/src/componentState.ts&#45;&gt;../../core/src/component.ts -->
<g id="edge17" class="edge">
<title>../../core/src/componentState.ts&#45;&gt;../../core/src/component.ts</title>
<path fill="none" stroke="#757575" d="M2253.13,-620.52C2176.79,-634.09 2042.88,-655.83 1927,-664 1751.88,-676.35 1701.45,-709.88 1532,-664 1494.15,-653.75 1456,-628.45 1432.81,-610.99"/>
<polygon fill="#757575" stroke="#757575" points="1434.74,-608.06 1424.68,-604.74 1430.47,-613.61 1434.74,-608.06"/>
</g>
<!-- ../../core/src/componentState.ts&#45;&gt;../../core/src/utils.ts -->
<g id="edge18" class="edge">
<title>../../core/src/componentState.ts&#45;&gt;../../core/src/utils.ts</title>
<path fill="none" stroke="#757575" d="M2385.07,-597.46C2401.12,-594.71 2418.17,-591.77 2434,-589 2448.04,-586.54 2463.02,-583.88 2477.41,-581.3"/>
<polygon fill="#757575" stroke="#757575" points="2478.03,-584.75 2487.26,-579.54 2476.8,-577.86 2478.03,-584.75"/>
</g>
<!-- ../../core/src/componentState.ts&#45;&gt;../../observer/src/index.ts -->
<g id="edge19" class="edge">
<title>../../core/src/componentState.ts&#45;&gt;../../observer/src/index.ts</title>
<path fill="none" stroke="#757575" d="M2382.8,-620.53C2411.59,-625.57 2445.52,-631.52 2475.34,-636.74"/>
<polygon fill="#757575" stroke="#757575" points="2474.83,-640.21 2485.28,-638.49 2476.04,-633.31 2474.83,-640.21"/>
</g>
<!-- ../../core/src/componentUtils.ts&#45;&gt;../../core/src/component.ts -->
<g id="edge20" class="edge">
<title>../../core/src/componentUtils.ts&#45;&gt;../../core/src/component.ts</title>
<path fill="none" stroke="#757575" d="M1990.68,-498.53C1868.82,-518.37 1620.19,-558.86 1491.59,-579.8"/>
<polygon fill="#757575" stroke="#757575" points="1490.72,-576.39 1481.41,-581.45 1491.84,-583.3 1490.72,-576.39"/>
</g>
<!-- ../../core/src/componentUtils.ts&#45;&gt;../../core/src/componentOptions.ts -->
<g id="edge22" class="edge">
<title>../../core/src/componentUtils.ts&#45;&gt;../../core/src/componentOptions.ts</title>
<path fill="none" stroke="#757575" d="M1962.71,-484.54C1950.68,-484.32 1938.56,-484.13 1927,-484 1865.23,-483.31 1849.75,-482.09 1788,-484 1779.66,-484.26 1771.06,-484.6 1762.41,-485"/>
<polygon fill="#757575" stroke="#757575" points="1762.05,-481.51 1752.23,-485.49 1762.38,-488.5 1762.05,-481.51"/>
</g>
<!-- ../../core/src/componentUtils.ts&#45;&gt;../../core/src/componentWatch.ts -->
<g id="edge26" class="edge">
<title>../../core/src/componentUtils.ts&#45;&gt;../../core/src/componentWatch.ts</title>
<path fill="none" stroke="#757575" d="M2071.64,-498.9C2092.06,-528.58 2147.47,-608.05 2198,-671 2231.52,-712.77 2273.58,-759.26 2297.05,-784.72"/>
<polygon fill="#757575" stroke="#757575" points="2294.62,-787.25 2303.98,-792.21 2299.76,-782.49 2294.62,-787.25"/>
</g>
<!-- ../../core/src/componentUtils.ts&#45;&gt;../../core/src/utils.ts -->
<g id="edge29" class="edge">
<title>../../core/src/componentUtils.ts&#45;&gt;../../core/src/utils.ts</title>
<path fill="none" stroke="#757575" d="M2162.04,-481.09C2237.75,-479.21 2344.22,-482.42 2434,-507 2467.94,-516.29 2503.27,-536.4 2526.11,-550.99"/>
<polygon fill="#757575" stroke="#757575" points="2524.22,-553.94 2534.51,-556.47 2528.05,-548.08 2524.22,-553.94"/>
</g>
<!-- ../../core/src/componentUtils.ts&#45;&gt;../../core/src/vdom.ts -->
<g id="edge30" class="edge">
<title>../../core/src/componentUtils.ts&#45;&gt;../../core/src/vdom.ts</title>
<path fill="none" stroke="#757575" d="M1969.69,-475.24C1967.35,-473.62 1965.12,-471.88 1963,-470 1930.48,-441.12 1951.49,-414.95 1927,-379 1912.62,-357.89 1890.13,-338.61 1874.87,-324.78"/>
<polygon fill="#757575" stroke="#757575" points="1876.95,-321.93 1867.24,-317.67 1872.18,-327.05 1876.95,-321.93"/>
</g>
<!-- ../../core/src/componentUtils.ts&#45;&gt;../../core/src/componentComputed.ts -->
<g id="edge21" class="edge">
<title>../../core/src/componentUtils.ts&#45;&gt;../../core/src/componentComputed.ts</title>
<path fill="none" stroke="#757575" d="M2070.57,-498.64C2088.19,-526.53 2137.04,-597.28 2198,-630 2201.28,-631.76 2204.68,-633.37 2208.16,-634.85"/>
<polygon fill="#757575" stroke="#757575" points="2206.98,-638.14 2217.57,-638.44 2209.48,-631.6 2206.98,-638.14"/>
</g>
<!-- ../../core/src/componentUtils.ts&#45;&gt;../../core/src/componentProps.ts -->
<g id="edge23" class="edge">
<title>../../core/src/componentUtils.ts&#45;&gt;../../core/src/componentProps.ts</title>
<path fill="none" stroke="#757575" d="M2135.91,-498.52C2166.15,-503.33 2201.46,-508.94 2232.68,-513.91"/>
<polygon fill="#757575" stroke="#757575" points="2232.24,-517.38 2242.67,-515.5 2233.34,-510.47 2232.24,-517.38"/>
</g>
<!-- ../../core/src/componentUtils.ts&#45;&gt;../../core/src/componentProxy.ts -->
<g id="edge24" class="edge">
<title>../../core/src/componentUtils.ts&#45;&gt;../../core/src/componentProxy.ts</title>
<path fill="none" stroke="#757575" d="M2084.73,-498.7C2110.69,-512.51 2156.33,-535.22 2198,-548 2205.63,-550.34 2213.64,-552.43 2221.72,-554.29"/>
<polygon fill="#757575" stroke="#757575" points="2221.09,-557.74 2231.61,-556.45 2222.58,-550.9 2221.09,-557.74"/>
</g>
<!-- ../../core/src/componentUtils.ts&#45;&gt;../../core/src/componentState.ts -->
<g id="edge25" class="edge">
<title>../../core/src/componentUtils.ts&#45;&gt;../../core/src/componentState.ts</title>
<path fill="none" stroke="#757575" d="M2074.84,-498.74C2096.53,-520.43 2146.38,-566.62 2198,-589 2202.72,-591.05 2207.64,-592.89 2212.67,-594.54"/>
<polygon fill="#757575" stroke="#757575" points="2211.86,-597.95 2222.44,-597.49 2213.88,-591.25 2211.86,-597.95"/>
</g>
<!-- ../../core/src/componentUtils.ts&#45;&gt;../../core/src/flags.ts -->
<g id="edge27" class="edge">
<title>../../core/src/componentUtils.ts&#45;&gt;../../core/src/flags.ts</title>
<path fill="none" stroke="#757575" d="M2128.13,-475.49C2209.06,-458.01 2347.55,-417.55 2434,-334 2504.87,-265.51 2536.48,-146.16 2546.87,-97.54"/>
<polygon fill="#757575" stroke="#757575" points="2550.34,-98.02 2548.92,-87.52 2543.48,-96.62 2550.34,-98.02"/>
</g>
<!-- ../../core/src/h.ts -->
<g id="node13" class="node">
<title>../../core/src/h.ts</title>
<path fill="none" stroke="#ff6c60" d="M2364.83,-325.5C2364.83,-325.5 2267.17,-325.5 2267.17,-325.5 2263.33,-325.5 2259.5,-321.67 2259.5,-317.83 2259.5,-317.83 2259.5,-310.17 2259.5,-310.17 2259.5,-306.33 2263.33,-302.5 2267.17,-302.5 2267.17,-302.5 2364.83,-302.5 2364.83,-302.5 2368.67,-302.5 2372.5,-306.33 2372.5,-310.17 2372.5,-310.17 2372.5,-317.83 2372.5,-317.83 2372.5,-321.67 2368.67,-325.5 2364.83,-325.5"/>
<text text-anchor="middle" x="2316" y="-310.3" font-family="Arial" font-size="14.00" fill="#ff6c60">../../core/src/h.ts</text>
</g>
<!-- ../../core/src/componentUtils.ts&#45;&gt;../../core/src/h.ts -->
<g id="edge28" class="edge">
<title>../../core/src/componentUtils.ts&#45;&gt;../../core/src/h.ts</title>
<path fill="none" stroke="#757575" d="M2085.65,-475.33C2106.6,-463.7 2138.27,-444.5 2162,-423 2180.98,-405.8 2178.38,-394.47 2198,-378 2221.95,-357.89 2253.2,-341.19 2277.38,-329.89"/>
<polygon fill="#757575" stroke="#757575" points="2278.95,-333.02 2286.6,-325.68 2276.05,-326.65 2278.95,-333.02"/>
</g>
<!-- ../../core/src/h.ts&#45;&gt;../../core/src/component.ts -->
<g id="edge41" class="edge">
<title>../../core/src/h.ts&#45;&gt;../../core/src/component.ts</title>
<path fill="none" stroke="#757575" d="M2259.37,-315.97C2189.6,-319.19 2066.56,-327.31 1963,-347 1865.03,-365.63 1617.9,-421.34 1532,-472 1486.61,-498.76 1445.91,-546.36 1425.11,-573.19"/>
<polygon fill="#757575" stroke="#757575" points="1422.1,-571.35 1418.84,-581.43 1427.68,-575.59 1422.1,-571.35"/>
</g>
<!-- ../../core/src/h.ts&#45;&gt;../../core/src/componentOptions.ts -->
<g id="edge42" class="edge">
<title>../../core/src/h.ts&#45;&gt;../../core/src/componentOptions.ts</title>
<path fill="none" stroke="#757575" d="M2259.21,-318.12C2239.58,-320.49 2217.56,-324.2 2198,-330 2181.04,-335.04 2178.57,-340.8 2162,-347 2000.52,-407.36 1802.76,-456.44 1704.51,-479.22"/>
<polygon fill="#757575" stroke="#757575" points="1703.7,-475.82 1694.74,-481.48 1705.27,-482.64 1703.7,-475.82"/>
</g>
<!-- ../../core/src/h.ts&#45;&gt;../../core/src/vdom.ts -->
<g id="edge44" class="edge">
<title>../../core/src/h.ts&#45;&gt;../../core/src/vdom.ts</title>
<path fill="none" stroke="#757575" d="M2259.28,-313.02C2178.71,-311.61 2029.3,-308.99 1937.42,-307.38"/>
<polygon fill="#757575" stroke="#757575" points="1937.4,-303.88 1927.34,-307.21 1937.27,-310.88 1937.4,-303.88"/>
</g>
<!-- ../../core/src/h.ts&#45;&gt;../../core/src/flags.ts -->
<g id="edge43" class="edge">
<title>../../core/src/h.ts&#45;&gt;../../core/src/flags.ts</title>
<path fill="none" stroke="#757575" d="M2328.6,-302.2C2366.35,-263.8 2485.88,-142.23 2532.31,-95.01"/>
<polygon fill="#757575" stroke="#757575" points="2535.09,-97.18 2539.6,-87.59 2530.1,-92.27 2535.09,-97.18"/>
</g>
<!-- ../../core/src/createRenderer.ts -->
<g id="node14" class="node">
<title>../../core/src/createRenderer.ts</title>
<path fill="none" stroke="#c6c5fe" d="M1279.33,-227.5C1279.33,-227.5 1096.67,-227.5 1096.67,-227.5 1092.83,-227.5 1089,-223.67 1089,-219.83 1089,-219.83 1089,-212.17 1089,-212.17 1089,-208.33 1092.83,-204.5 1096.67,-204.5 1096.67,-204.5 1279.33,-204.5 1279.33,-204.5 1283.17,-204.5 1287,-208.33 1287,-212.17 1287,-212.17 1287,-219.83 1287,-219.83 1287,-223.67 1283.17,-227.5 1279.33,-227.5"/>
<text text-anchor="middle" x="1188" y="-212.3" font-family="Arial" font-size="14.00" fill="#c6c5fe">../../core/src/createRenderer.ts</text>
</g>
<!-- ../../core/src/createRenderer.ts&#45;&gt;../../core/src/component.ts -->
<g id="edge34" class="edge">
<title>../../core/src/createRenderer.ts&#45;&gt;../../core/src/component.ts</title>
<path fill="none" stroke="#757575" d="M1195.81,-227.7C1226.98,-281.24 1356.28,-503.31 1396.5,-572.4"/>
<polygon fill="#757575" stroke="#757575" points="1393.71,-574.56 1401.77,-581.44 1399.76,-571.04 1393.71,-574.56"/>
</g>
<!-- ../../core/src/createRenderer.ts&#45;&gt;../../core/src/utils.ts -->
<g id="edge38" class="edge">
<title>../../core/src/createRenderer.ts&#45;&gt;../../core/src/utils.ts</title>
<path fill="none" stroke="#757575" d="M1220.76,-204.36C1240.62,-196.38 1266.26,-184.77 1287,-171 1305.08,-158.99 1303.08,-146.62 1323,-138 1453.07,-81.68 1499.26,-114 1641,-114 1641,-114 1641,-114 2063.5,-114 2228.51,-114 2306.2,-33.61 2434,-138 2499.38,-191.41 2538.32,-466.25 2548.38,-546.17"/>
<polygon fill="#757575" stroke="#757575" points="2544.91,-546.62 2549.61,-556.12 2551.86,-545.76 2544.91,-546.62"/>
</g>
<!-- ../../core/src/createRenderer.ts&#45;&gt;../../core/src/vdom.ts -->
<g id="edge39" class="edge">
<title>../../core/src/createRenderer.ts&#45;&gt;../../core/src/vdom.ts</title>
<path fill="none" stroke="#757575" d="M1229.75,-227.55C1256.15,-234.66 1291.38,-243.44 1323,-249 1408.3,-263.99 1651.2,-287.28 1777.71,-298.9"/>
<polygon fill="#757575" stroke="#757575" points="1777.45,-302.39 1787.73,-299.82 1778.09,-295.42 1777.45,-302.39"/>
</g>
<!-- ../../core/src/createRenderer.ts&#45;&gt;../../observer/src/index.ts -->
<g id="edge40" class="edge">
<title>../../core/src/createRenderer.ts&#45;&gt;../../observer/src/index.ts</title>
<path fill="none" stroke="#757575" d="M1237.84,-204.48C1320.39,-186.06 1492.99,-152 1641,-152 1641,-152 1641,-152 2063.5,-152 2239.69,-152 2325.41,-154.26 2434,-293 2515.68,-397.36 2403.79,-474.2 2470,-589 2481.01,-608.09 2500.62,-623.1 2517.79,-633.45"/>
<polygon fill="#757575" stroke="#757575" points="2516.07,-636.5 2526.48,-638.43 2519.55,-630.42 2516.07,-636.5"/>
</g>
<!-- ../../core/src/createRenderer.ts&#45;&gt;../../core/src/componentProps.ts -->
<g id="edge35" class="edge">
<title>../../core/src/createRenderer.ts&#45;&gt;../../core/src/componentProps.ts</title>
<path fill="none" stroke="#757575" d="M1281.1,-204.47C1423.72,-190.07 1704.74,-175.54 1927,-250 2041.21,-288.26 2065.01,-313.57 2162,-385 2215.08,-424.09 2269.97,-479.32 2297.31,-508.02"/>
<polygon fill="#757575" stroke="#757575" points="2294.85,-510.51 2304.26,-515.38 2299.93,-505.7 2294.85,-510.51"/>
</g>
<!-- ../../core/src/createRenderer.ts&#45;&gt;../../core/src/componentUtils.ts -->
<g id="edge36" class="edge">
<title>../../core/src/createRenderer.ts&#45;&gt;../../core/src/componentUtils.ts</title>
<path fill="none" stroke="#757575" d="M1287.02,-219.37C1476.2,-226.7 1877.48,-246.62 1927,-285 1964.34,-313.93 1938.04,-344.9 1963,-385 1983.76,-418.36 2016.92,-449.77 2038.95,-468.7"/>
<polygon fill="#757575" stroke="#757575" points="2036.9,-471.54 2046.8,-475.32 2041.41,-466.19 2036.9,-471.54"/>
</g>
<!-- ../../core/src/createRenderer.ts&#45;&gt;../../core/src/flags.ts -->
<g id="edge37" class="edge">
<title>../../core/src/createRenderer.ts&#45;&gt;../../core/src/flags.ts</title>
<path fill="none" stroke="#757575" d="M1229.36,-204.4C1248.64,-197.25 1270.94,-186.45 1287,-171 1312.5,-146.47 1293.03,-118.81 1323,-100 1515.19,20.64 2236.62,-42.73 2474.43,-67.53"/>
<polygon fill="#757575" stroke="#757575" points="2474.4,-71.04 2484.71,-68.61 2475.13,-64.08 2474.4,-71.04"/>
</g>
<!-- ../../core/src/index.ts -->
<g id="node15" class="node">
<title>../../core/src/index.ts</title>
<path fill="none" stroke="#c6c5fe" d="M1045.33,-388.5C1045.33,-388.5 923.67,-388.5 923.67,-388.5 919.83,-388.5 916,-384.67 916,-380.83 916,-380.83 916,-373.17 916,-373.17 916,-369.33 919.83,-365.5 923.67,-365.5 923.67,-365.5 1045.33,-365.5 1045.33,-365.5 1049.17,-365.5 1053,-369.33 1053,-373.17 1053,-373.17 1053,-380.83 1053,-380.83 1053,-384.67 1049.17,-388.5 1045.33,-388.5"/>
<text text-anchor="middle" x="984.5" y="-373.3" font-family="Arial" font-size="14.00" fill="#c6c5fe">../../core/src/index.ts</text>
</g>
<!-- ../../core/src/index.ts&#45;&gt;../../core/src/component.ts -->
<g id="edge45" class="edge">
<title>../../core/src/index.ts&#45;&gt;../../core/src/component.ts</title>
<path fill="none" stroke="#757575" d="M991.87,-388.54C1006.01,-413.08 1042.49,-470.67 1089,-501 1156.61,-545.08 1245.67,-568.46 1312.59,-580.59"/>
<polygon fill="#757575" stroke="#757575" points="1312.26,-584.09 1322.71,-582.37 1313.47,-577.19 1312.26,-584.09"/>
</g>
<!-- ../../core/src/index.ts&#45;&gt;../../core/src/componentOptions.ts -->
<g id="edge46" class="edge">
<title>../../core/src/index.ts&#45;&gt;../../core/src/componentOptions.ts</title>
<path fill="none" stroke="#757575" d="M995.9,-388.62C1013.15,-406.98 1049.7,-442.14 1089,-457 1230.47,-510.51 1406.8,-511.8 1521.55,-504.88"/>
<polygon fill="#757575" stroke="#757575" points="1522.01,-508.36 1531.77,-504.23 1521.57,-501.37 1522.01,-508.36"/>
</g>
<!-- ../../core/src/index.ts&#45;&gt;../../core/src/vdom.ts -->
<g id="edge51" class="edge">
<title>../../core/src/index.ts&#45;&gt;../../core/src/vdom.ts</title>
<path fill="none" stroke="#757575" d="M1053.17,-369.99C1156.38,-359.46 1359.33,-339.37 1532,-326 1615.73,-319.51 1711.75,-313.81 1777.49,-310.17"/>
<polygon fill="#757575" stroke="#757575" points="1777.98,-313.65 1787.77,-309.61 1777.59,-306.66 1777.98,-313.65"/>
</g>
<!-- ../../core/src/index.ts&#45;&gt;../../observer/src/index.ts -->
<g id="edge52" class="edge">
<title>../../core/src/index.ts&#45;&gt;../../observer/src/index.ts</title>
<path fill="none" stroke="#757575" d="M988.04,-388.63C1006.24,-468.62 1124.36,-934 1408.5,-934 1408.5,-934 1408.5,-934 2063.5,-934 2230.24,-934 2298.74,-972.51 2434,-875 2504.61,-824.1 2535.94,-717.63 2546.55,-671.77"/>
<polygon fill="#757575" stroke="#757575" points="2550.02,-672.25 2548.76,-661.73 2543.19,-670.75 2550.02,-672.25"/>
</g>
<!-- ../../core/src/index.ts&#45;&gt;../../core/src/componentUtils.ts -->
<g id="edge47" class="edge">
<title>../../core/src/index.ts&#45;&gt;../../core/src/componentUtils.ts</title>
<path fill="none" stroke="#757575" d="M1053.22,-383.92C1234.38,-402.44 1731.39,-453.25 1952.71,-475.88"/>
<polygon fill="#757575" stroke="#757575" points="1952.42,-479.37 1962.72,-476.9 1953.13,-472.4 1952.42,-479.37"/>
</g>
<!-- ../../core/src/index.ts&#45;&gt;../../core/src/flags.ts -->
<g id="edge49" class="edge">
<title>../../core/src/index.ts&#45;&gt;../../core/src/flags.ts</title>
<path fill="none" stroke="#757575" d="M986.68,-365.43C991.42,-324.91 1012.68,-187.9 1089,-114 1197.31,-9.12 1257.73,0 1408.5,0 1408.5,0 1408.5,0 2063.5,0 2229.17,0 2271.65,-8.01 2434,-41 2459.04,-46.09 2486.44,-54.14 2508.43,-61.25"/>
<polygon fill="#757575" stroke="#757575" points="2507.53,-64.63 2518.12,-64.43 2509.71,-57.98 2507.53,-64.63"/>
</g>
<!-- ../../core/src/index.ts&#45;&gt;../../core/src/h.ts -->
<g id="edge50" class="edge">
<title>../../core/src/index.ts&#45;&gt;../../core/src/h.ts</title>
<path fill="none" stroke="#757575" d="M987.98,-365.28C995.82,-331.57 1023.52,-234.22 1089,-195 1500.98,51.77 2133.6,-225.98 2282.73,-297.9"/>
<polygon fill="#757575" stroke="#757575" points="2281.32,-301.11 2291.84,-302.33 2284.38,-294.81 2281.32,-301.11"/>
</g>
<!-- ../../core/src/index.ts&#45;&gt;../../core/src/createRenderer.ts -->
<g id="edge48" class="edge">
<title>../../core/src/index.ts&#45;&gt;../../core/src/createRenderer.ts</title>
<path fill="none" stroke="#757575" d="M999.99,-365.42C1034.69,-337.7 1122.74,-267.34 1164.44,-234.02"/>
<polygon fill="#757575" stroke="#757575" points="1166.74,-236.67 1172.37,-227.69 1162.37,-231.2 1166.74,-236.67"/>
</g>
<!-- ../../observer/src/autorun.ts&#45;&gt;../../observer/src/operations.ts -->
<g id="edge58" class="edge">
<title>../../observer/src/autorun.ts&#45;&gt;../../observer/src/operations.ts</title>
<path fill="none" stroke="#757575" d="M3079.04,-678.45C3114.87,-668.5 3166.76,-654.08 3205.27,-643.38"/>
<polygon fill="#757575" stroke="#757575" points="3206.55,-646.65 3215.25,-640.6 3204.68,-639.91 3206.55,-646.65"/>
</g>
<!-- ../../observer/src/autorun.ts&#45;&gt;../../observer/src/state.ts -->
<g id="edge59" class="edge">
<title>../../observer/src/autorun.ts&#45;&gt;../../observer/src/state.ts</title>
<path fill="none" stroke="#757575" d="M3125.2,-683.37C3139.04,-683.22 3153.36,-683.21 3167.24,-683.35"/>
<polygon fill="#757575" stroke="#757575" points="3167.22,-686.85 3177.26,-683.48 3167.31,-679.85 3167.22,-686.85"/>
</g>
<!-- ../../observer/src/state.ts&#45;&gt;../../observer/src/autorun.ts -->
<g id="edge76" class="edge">
<title>../../observer/src/state.ts&#45;&gt;../../observer/src/autorun.ts</title>
<path fill="none" stroke="#757575" d="M3177.26,-696.52C3163.65,-696.73 3149.37,-696.8 3135.35,-696.71"/>
<polygon fill="#757575" stroke="#757575" points="3135.23,-693.21 3125.2,-696.63 3135.17,-700.21 3135.23,-693.21"/>
</g>
<!-- ../../observer/src/baseHandlers.ts&#45;&gt;../../observer/src/index.ts -->
<g id="edge61" class="edge">
<title>../../observer/src/baseHandlers.ts&#45;&gt;../../observer/src/index.ts</title>
<path fill="none" stroke="#757575" d="M2761.4,-581.53C2736.79,-587.58 2700.52,-594.79 2670,-605 2645.9,-613.06 2620.15,-624.6 2598.96,-634.16"/>
<polygon fill="#757575" stroke="#757575" points="2597.24,-631.1 2589.57,-638.39 2600.12,-637.48 2597.24,-631.1"/>
</g>
<!-- ../../observer/src/baseHandlers.ts&#45;&gt;../../observer/src/autorun.ts -->
<g id="edge60" class="edge">
<title>../../observer/src/baseHandlers.ts&#45;&gt;../../observer/src/autorun.ts</title>
<path fill="none" stroke="#757575" d="M2815.35,-581.51C2858.96,-603 2952.89,-649.29 3002.79,-673.88"/>
<polygon fill="#757575" stroke="#757575" points="3001.35,-677.07 3011.87,-678.35 3004.44,-670.79 3001.35,-677.07"/>
</g>
<!-- ../../observer/src/baseHandlers.ts&#45;&gt;../../observer/src/operations.ts -->
<g id="edge63" class="edge">
<title>../../observer/src/baseHandlers.ts&#45;&gt;../../observer/src/operations.ts</title>
<path fill="none" stroke="#757575" d="M2898.64,-573.79C2964.26,-577.24 3049.88,-583.77 3125,-596 3152.87,-600.54 3183.49,-608.03 3208.22,-614.73"/>
<polygon fill="#757575" stroke="#757575" points="3207.51,-618.17 3218.08,-617.45 3209.37,-611.42 3207.51,-618.17"/>
</g>
<!-- ../../observer/src/baseHandlers.ts&#45;&gt;../../observer/src/lock.ts -->
<g id="edge62" class="edge">
<title>../../observer/src/baseHandlers.ts&#45;&gt;../../observer/src/lock.ts</title>
<path fill="none" stroke="#757575" d="M2864.07,-558.46C2892.17,-553.96 2924.53,-548.77 2953.52,-544.13"/>
<polygon fill="#757575" stroke="#757575" points="2954.29,-547.55 2963.62,-542.51 2953.19,-540.64 2954.29,-547.55"/>
</g>
<!-- ../../observer/src/collectionHandlers.ts&#45;&gt;../../observer/src/index.ts -->
<g id="edge65" class="edge">
<title>../../observer/src/collectionHandlers.ts&#45;&gt;../../observer/src/index.ts</title>
<path fill="none" stroke="#757575" d="M2669.87,-656.75C2661.29,-656.74 2652.72,-656.69 2644.34,-656.59"/>
<polygon fill="#757575" stroke="#757575" points="2644.28,-653.09 2634.23,-656.44 2644.18,-660.09 2644.28,-653.09"/>
</g>
<!-- ../../observer/src/collectionHandlers.ts&#45;&gt;../../observer/src/autorun.ts -->
<g id="edge64" class="edge">
<title>../../observer/src/collectionHandlers.ts&#45;&gt;../../observer/src/autorun.ts</title>
<path fill="none" stroke="#757575" d="M2862.1,-661.52C2891.26,-666.31 2925.27,-671.89 2955.41,-676.84"/>
<polygon fill="#757575" stroke="#757575" points="2955.03,-680.33 2965.47,-678.5 2956.17,-673.42 2955.03,-680.33"/>
</g>
<!-- ../../observer/src/collectionHandlers.ts&#45;&gt;../../observer/src/operations.ts -->
<g id="edge66" class="edge">
<title>../../observer/src/collectionHandlers.ts&#45;&gt;../../observer/src/operations.ts</title>
<path fill="none" stroke="#757575" d="M2912.05,-644.58C2985.79,-641.25 3079.41,-637.02 3150.5,-633.81"/>
<polygon fill="#757575" stroke="#757575" points="3150.99,-637.29 3160.82,-633.34 3150.67,-630.3 3150.99,-637.29"/>
</g>
<!-- ../../observer/src/computed.ts&#45;&gt;../../observer/src/index.ts -->
<g id="edge68" class="edge">
<title>../../observer/src/computed.ts&#45;&gt;../../observer/src/index.ts</title>
<path fill="none" stroke="#757575" d="M2695.33,-684.3C2686.76,-682.88 2678.22,-681.42 2670,-680 2642.37,-675.22 2611.1,-669.6 2587.85,-664.03"/>
<polygon fill="#757575" stroke="#757575" points="2588.64,-660.62 2578.09,-661.56 2586.93,-667.4 2588.64,-660.62"/>
</g>
<!-- ../../observer/src/computed.ts&#45;&gt;../../observer/src/autorun.ts -->
<g id="edge67" class="edge">
<title>../../observer/src/computed.ts&#45;&gt;../../observer/src/autorun.ts</title>
<path fill="none" stroke="#757575" d="M2886.84,-690.61C2903.43,-690.54 2920.72,-690.47 2937.39,-690.4"/>
<polygon fill="#757575" stroke="#757575" points="2937.7,-693.9 2947.68,-690.36 2937.67,-686.9 2937.7,-693.9"/>
</g>
<!-- ../../renderer&#45;dom/src/index.ts -->
<g id="node23" class="node">
<title>../../renderer&#45;dom/src/index.ts</title>
<path fill="none" stroke="#c6c5fe" d="M285.33,-426.5C285.33,-426.5 106.67,-426.5 106.67,-426.5 102.83,-426.5 99,-422.67 99,-418.83 99,-418.83 99,-411.17 99,-411.17 99,-407.33 102.83,-403.5 106.67,-403.5 106.67,-403.5 285.33,-403.5 285.33,-403.5 289.17,-403.5 293,-407.33 293,-411.17 293,-411.17 293,-418.83 293,-418.83 293,-422.67 289.17,-426.5 285.33,-426.5"/>
<text text-anchor="middle" x="196" y="-411.3" font-family="Arial" font-size="14.00" fill="#c6c5fe">../../renderer&#45;dom/src/index.ts</text>
</g>
<!-- ../../renderer&#45;dom/src/index.ts&#45;&gt;../../core/src/index.ts -->
<g id="edge77" class="edge">
<title>../../renderer&#45;dom/src/index.ts&#45;&gt;../../core/src/index.ts</title>
<path fill="none" stroke="#757575" d="M215.32,-426.61C240.01,-441.49 285.85,-466.51 329,-476 568.28,-528.61 651.17,-547.5 880,-460 915.17,-446.55 947.63,-416.43 966.5,-396.42"/>
<polygon fill="#757575" stroke="#757575" points="969.31,-398.53 973.49,-388.79 964.15,-393.79 969.31,-398.53"/>
</g>
<!-- ../../renderer&#45;dom/src/nodeOps.ts -->
<g id="node24" class="node">
<title>../../renderer&#45;dom/src/nodeOps.ts</title>
<path fill="none" stroke="#cfffac" d="M558.83,-467.5C558.83,-467.5 357.17,-467.5 357.17,-467.5 353.33,-467.5 349.5,-463.67 349.5,-459.83 349.5,-459.83 349.5,-452.17 349.5,-452.17 349.5,-448.33 353.33,-444.5 357.17,-444.5 357.17,-444.5 558.83,-444.5 558.83,-444.5 562.67,-444.5 566.5,-448.33 566.5,-452.17 566.5,-452.17 566.5,-459.83 566.5,-459.83 566.5,-463.67 562.67,-467.5 558.83,-467.5"/>
<text text-anchor="middle" x="458" y="-452.3" font-family="Arial" font-size="14.00" fill="#cfffac">../../renderer&#45;dom/src/nodeOps.ts</text>
</g>
<!-- ../../renderer&#45;dom/src/index.ts&#45;&gt;../../renderer&#45;dom/src/nodeOps.ts -->
<g id="edge78" class="edge">
<title>../../renderer&#45;dom/src/index.ts&#45;&gt;../../renderer&#45;dom/src/nodeOps.ts</title>
<path fill="none" stroke="#757575" d="M270.12,-426.53C302.38,-431.62 340.46,-437.62 373.8,-442.88"/>
<polygon fill="#757575" stroke="#757575" points="373.56,-446.39 383.98,-444.49 374.65,-439.47 373.56,-446.39"/>
</g>
<!-- ../../renderer&#45;dom/src/patchData.ts -->
<g id="node25" class="node">
<title>../../renderer&#45;dom/src/patchData.ts</title>
<path fill="none" stroke="#c6c5fe" d="M561.83,-366.5C561.83,-366.5 354.17,-366.5 354.17,-366.5 350.33,-366.5 346.5,-362.67 346.5,-358.83 346.5,-358.83 346.5,-351.17 346.5,-351.17 346.5,-347.33 350.33,-343.5 354.17,-343.5 354.17,-343.5 561.83,-343.5 561.83,-343.5 565.67,-343.5 569.5,-347.33 569.5,-351.17 569.5,-351.17 569.5,-358.83 569.5,-358.83 569.5,-362.67 565.67,-366.5 561.83,-366.5"/>
<text text-anchor="middle" x="458" y="-351.3" font-family="Arial" font-size="14.00" fill="#c6c5fe">../../renderer&#45;dom/src/patchData.ts</text>
</g>
<!-- ../../renderer&#45;dom/src/index.ts&#45;&gt;../../renderer&#45;dom/src/patchData.ts -->
<g id="edge79" class="edge">
<title>../../renderer&#45;dom/src/index.ts&#45;&gt;../../renderer&#45;dom/src/patchData.ts</title>
<path fill="none" stroke="#757575" d="M247.13,-403.43C289.93,-393.55 351.6,-379.32 397.01,-368.84"/>
<polygon fill="#757575" stroke="#757575" points="398.07,-372.19 407.02,-366.53 396.49,-365.37 398.07,-372.19"/>
</g>
<!-- ../../renderer&#45;dom/src/teardownVNode.ts -->
<g id="node26" class="node">
<title>../../renderer&#45;dom/src/teardownVNode.ts</title>
<path fill="none" stroke="#c6c5fe" d="M579.33,-426.5C579.33,-426.5 336.67,-426.5 336.67,-426.5 332.83,-426.5 329,-422.67 329,-418.83 329,-418.83 329,-411.17 329,-411.17 329,-407.33 332.83,-403.5 336.67,-403.5 336.67,-403.5 579.33,-403.5 579.33,-403.5 583.17,-403.5 587,-407.33 587,-411.17 587,-411.17 587,-418.83 587,-418.83 587,-422.67 583.17,-426.5 579.33,-426.5"/>
<text text-anchor="middle" x="458" y="-411.3" font-family="Arial" font-size="14.00" fill="#c6c5fe">../../renderer&#45;dom/src/teardownVNode.ts</text>
</g>
<!-- ../../renderer&#45;dom/src/index.ts&#45;&gt;../../renderer&#45;dom/src/teardownVNode.ts -->
<g id="edge80" class="edge">
<title>../../renderer&#45;dom/src/index.ts&#45;&gt;../../renderer&#45;dom/src/teardownVNode.ts</title>
<path fill="none" stroke="#757575" d="M293.08,-415C301.5,-415 310.12,-415 318.8,-415"/>
<polygon fill="#757575" stroke="#757575" points="319,-418.5 328.99,-415 318.99,-411.5 319,-418.5"/>
</g>
<!-- ../../scheduler/src/index.ts -->
<g id="node27" class="node">
<title>../../scheduler/src/index.ts</title>
<path fill="none" stroke="#cfffac" d="M535.33,-325.5C535.33,-325.5 380.67,-325.5 380.67,-325.5 376.83,-325.5 373,-321.67 373,-317.83 373,-317.83 373,-310.17 373,-310.17 373,-306.33 376.83,-302.5 380.67,-302.5 380.67,-302.5 535.33,-302.5 535.33,-302.5 539.17,-302.5 543,-306.33 543,-310.17 543,-310.17 543,-317.83 543,-317.83 543,-321.67 539.17,-325.5 535.33,-325.5"/>
<text text-anchor="middle" x="458" y="-310.3" font-family="Arial" font-size="14.00" fill="#cfffac">../../scheduler/src/index.ts</text>
</g>
<!-- ../../renderer&#45;dom/src/index.ts&#45;&gt;../../scheduler/src/index.ts -->
<g id="edge81" class="edge">
<title>../../renderer&#45;dom/src/index.ts&#45;&gt;../../scheduler/src/index.ts</title>
<path fill="none" stroke="#757575" d="M211.43,-403.44C234.69,-385.46 282.57,-351.09 329,-334 339.69,-330.06 351.17,-326.9 362.69,-324.36"/>
<polygon fill="#757575" stroke="#757575" points="363.72,-327.73 372.82,-322.29 362.32,-320.87 363.72,-327.73"/>
</g>
<!-- ../../renderer&#45;dom/src/patchData.ts&#45;&gt;../../core/src/index.ts -->
<g id="edge84" class="edge">
<title>../../renderer&#45;dom/src/patchData.ts&#45;&gt;../../core/src/index.ts</title>
<path fill="none" stroke="#757575" d="M569.7,-343.4C575.78,-340.78 581.6,-337.67 587,-334 612.73,-316.53 595.94,-289.32 623,-274 722.4,-217.72 774.42,-230.42 880,-274 920.7,-290.8 953.81,-332.21 970.9,-357.11"/>
<polygon fill="#757575" stroke="#757575" points="968,-359.07 976.45,-365.46 973.83,-355.19 968,-359.07"/>
</g>
<!-- ../../renderer&#45;dom/src/modules/attrs.ts -->
<g id="node28" class="node">
<title>../../renderer&#45;dom/src/modules/attrs.ts</title>
<path fill="none" stroke="#cfffac" d="M865.33,-347.5C865.33,-347.5 637.67,-347.5 637.67,-347.5 633.83,-347.5 630,-343.67 630,-339.83 630,-339.83 630,-332.17 630,-332.17 630,-328.33 633.83,-324.5 637.67,-324.5 637.67,-324.5 865.33,-324.5 865.33,-324.5 869.17,-324.5 873,-328.33 873,-332.17 873,-332.17 873,-339.83 873,-339.83 873,-343.67 869.17,-347.5 865.33,-347.5"/>
<text text-anchor="middle" x="751.5" y="-332.3" font-family="Arial" font-size="14.00" fill="#cfffac">../../renderer&#45;dom/src/modules/attrs.ts</text>
</g>
<!-- ../../renderer&#45;dom/src/patchData.ts&#45;&gt;../../renderer&#45;dom/src/modules/attrs.ts -->
<g id="edge85" class="edge">
<title>../../renderer&#45;dom/src/patchData.ts&#45;&gt;../../renderer&#45;dom/src/modules/attrs.ts</title>
<path fill="none" stroke="#757575" d="M569.62,-347.79C585.89,-346.73 602.78,-345.63 619.42,-344.54"/>
<polygon fill="#757575" stroke="#757575" points="619.99,-348.01 629.74,-343.87 619.53,-341.03 619.99,-348.01"/>
</g>
<!-- ../../renderer&#45;dom/src/modules/class.ts -->
<g id="node29" class="node">
<title>../../renderer&#45;dom/src/modules/class.ts</title>
<path fill="none" stroke="#cfffac" d="M867.83,-306.5C867.83,-306.5 635.17,-306.5 635.17,-306.5 631.33,-306.5 627.5,-302.67 627.5,-298.83 627.5,-298.83 627.5,-291.17 627.5,-291.17 627.5,-287.33 631.33,-283.5 635.17,-283.5 635.17,-283.5 867.83,-283.5 867.83,-283.5 871.67,-283.5 875.5,-287.33 875.5,-291.17 875.5,-291.17 875.5,-298.83 875.5,-298.83 875.5,-302.67 871.67,-306.5 867.83,-306.5"/>
<text text-anchor="middle" x="751.5" y="-291.3" font-family="Arial" font-size="14.00" fill="#cfffac">../../renderer&#45;dom/src/modules/class.ts</text>
</g>
<!-- ../../renderer&#45;dom/src/patchData.ts&#45;&gt;../../renderer&#45;dom/src/modules/class.ts -->
<g id="edge86" class="edge">
<title>../../renderer&#45;dom/src/patchData.ts&#45;&gt;../../renderer&#45;dom/src/modules/class.ts</title>
<path fill="none" stroke="#757575" d="M551.47,-343.5C563.57,-340.93 575.69,-337.8 587,-334 604.15,-328.24 605.83,-320.7 623,-315 630.02,-312.67 637.36,-310.6 644.8,-308.78"/>
<polygon fill="#757575" stroke="#757575" points="645.68,-312.17 654.64,-306.52 644.11,-305.35 645.68,-312.17"/>
</g>
<!-- ../../renderer&#45;dom/src/modules/events.ts -->
<g id="node30" class="node">
<title>../../renderer&#45;dom/src/modules/events.ts</title>
<path fill="none" stroke="#cfffac" d="M872.33,-429.5C872.33,-429.5 630.67,-429.5 630.67,-429.5 626.83,-429.5 623,-425.67 623,-421.83 623,-421.83 623,-414.17 623,-414.17 623,-410.33 626.83,-406.5 630.67,-406.5 630.67,-406.5 872.33,-406.5 872.33,-406.5 876.17,-406.5 880,-410.33 880,-414.17 880,-414.17 880,-421.83 880,-421.83 880,-425.67 876.17,-429.5 872.33,-429.5"/>
<text text-anchor="middle" x="751.5" y="-414.3" font-family="Arial" font-size="14.00" fill="#cfffac">../../renderer&#45;dom/src/modules/events.ts</text>
</g>
<!-- ../../renderer&#45;dom/src/patchData.ts&#45;&gt;../../renderer&#45;dom/src/modules/events.ts -->
<g id="edge87" class="edge">
<title>../../renderer&#45;dom/src/patchData.ts&#45;&gt;../../renderer&#45;dom/src/modules/events.ts</title>
<path fill="none" stroke="#757575" d="M499.88,-366.53C532.92,-375.59 580.72,-388.12 623,-397 636.16,-399.76 650.15,-402.38 663.86,-404.78"/>
<polygon fill="#757575" stroke="#757575" points="663.33,-408.24 673.77,-406.48 664.51,-401.34 663.33,-408.24"/>
</g>
<!-- ../../renderer&#45;dom/src/modules/props.ts -->
<g id="node31" class="node">
<title>../../renderer&#45;dom/src/modules/props.ts</title>
<path fill="none" stroke="#c6c5fe" d="M869.33,-226.5C869.33,-226.5 633.67,-226.5 633.67,-226.5 629.83,-226.5 626,-222.67 626,-218.83 626,-218.83 626,-211.17 626,-211.17 626,-207.33 629.83,-203.5 633.67,-203.5 633.67,-203.5 869.33,-203.5 869.33,-203.5 873.17,-203.5 877,-207.33 877,-211.17 877,-211.17 877,-218.83 877,-218.83 877,-222.67 873.17,-226.5 869.33,-226.5"/>
<text text-anchor="middle" x="751.5" y="-211.3" font-family="Arial" font-size="14.00" fill="#c6c5fe">../../renderer&#45;dom/src/modules/props.ts</text>
</g>
<!-- ../../renderer&#45;dom/src/patchData.ts&#45;&gt;../../renderer&#45;dom/src/modules/props.ts -->
<g id="edge88" class="edge">
<title>../../renderer&#45;dom/src/patchData.ts&#45;&gt;../../renderer&#45;dom/src/modules/props.ts</title>
<path fill="none" stroke="#757575" d="M569.57,-344.9C575.79,-341.93 581.67,-338.33 587,-334 621.41,-306.06 589.14,-269.6 623,-241 627.53,-237.17 632.48,-233.85 637.7,-230.99"/>
<polygon fill="#757575" stroke="#757575" points="639.29,-234.1 646.74,-226.57 636.22,-227.82 639.29,-234.1"/>
</g>
<!-- ../../renderer&#45;dom/src/modules/style.ts -->
<g id="node32" class="node">
<title>../../renderer&#45;dom/src/modules/style.ts</title>
<path fill="none" stroke="#c6c5fe" d="M866.33,-388.5C866.33,-388.5 636.67,-388.5 636.67,-388.5 632.83,-388.5 629,-384.67 629,-380.83 629,-380.83 629,-373.17 629,-373.17 629,-369.33 632.83,-365.5 636.67,-365.5 636.67,-365.5 866.33,-365.5 866.33,-365.5 870.17,-365.5 874,-369.33 874,-373.17 874,-373.17 874,-380.83 874,-380.83 874,-384.67 870.17,-388.5 866.33,-388.5"/>
<text text-anchor="middle" x="751.5" y="-373.3" font-family="Arial" font-size="14.00" fill="#c6c5fe">../../renderer&#45;dom/src/modules/style.ts</text>
</g>
<!-- ../../renderer&#45;dom/src/patchData.ts&#45;&gt;../../renderer&#45;dom/src/modules/style.ts -->
<g id="edge89" class="edge">
<title>../../renderer&#45;dom/src/patchData.ts&#45;&gt;../../renderer&#45;dom/src/modules/style.ts</title>
<path fill="none" stroke="#757575" d="M569.62,-363.35C585.62,-364.56 602.23,-365.81 618.6,-367.05"/>
<polygon fill="#757575" stroke="#757575" points="618.52,-370.55 628.76,-367.81 619.05,-363.57 618.52,-370.55"/>
</g>
<!-- ../../renderer&#45;dom/src/teardownVNode.ts&#45;&gt;../../core/src/index.ts -->
<g id="edge90" class="edge">
<title>../../renderer&#45;dom/src/teardownVNode.ts&#45;&gt;../../core/src/index.ts</title>
<path fill="none" stroke="#757575" d="M525.8,-426.52C555.47,-431.08 590.88,-435.76 623,-438 736.95,-445.95 769.8,-468.06 880,-438 910.67,-429.63 941.52,-409.6 961.45,-394.76"/>
<polygon fill="#757575" stroke="#757575" points="963.73,-397.43 969.55,-388.57 959.48,-391.87 963.73,-397.43"/>
</g>
<!-- ../../renderer&#45;dom/src/teardownVNode.ts&#45;&gt;../../renderer&#45;dom/src/modules/events.ts -->
<g id="edge91" class="edge">
<title>../../renderer&#45;dom/src/teardownVNode.ts&#45;&gt;../../renderer&#45;dom/src/modules/events.ts</title>
<path fill="none" stroke="#757575" d="M587.28,-416.32C595.64,-416.41 604.08,-416.49 612.49,-416.58"/>
<polygon fill="#757575" stroke="#757575" points="612.68,-420.08 622.71,-416.68 612.75,-413.08 612.68,-420.08"/>
</g>
<!-- ../../renderer&#45;dom/src/modules/props.ts&#45;&gt;../../core/src/index.ts -->
<g id="edge82" class="edge">
<title>../../renderer&#45;dom/src/modules/props.ts&#45;&gt;../../core/src/index.ts</title>
<path fill="none" stroke="#757575" d="M848.07,-226.53C859.31,-230.16 870.24,-234.87 880,-241 925.38,-269.49 958.24,-325.46 973.66,-355.97"/>
<polygon fill="#757575" stroke="#757575" points="970.67,-357.82 978.21,-365.26 976.96,-354.74 970.67,-357.82"/>
</g>
<!-- ../../renderer&#45;dom/src/modules/style.ts&#45;&gt;../../core/src/index.ts -->
<g id="edge83" class="edge">
<title>../../renderer&#45;dom/src/modules/style.ts&#45;&gt;../../core/src/index.ts</title>
<path fill="none" stroke="#757575" d="M874.09,-377C884.85,-377 895.54,-377 905.78,-377"/>
<polygon fill="#757575" stroke="#757575" points="905.87,-380.5 915.87,-377 905.86,-373.5 905.87,-380.5"/>
</g>
<!-- index.ts -->
<g id="node33" class="node">
<title>index.ts</title>
<path fill="none" stroke="#c6c5fe" d="M55.33,-426.5C55.33,-426.5 7.67,-426.5 7.67,-426.5 3.83,-426.5 0,-422.67 0,-418.83 0,-418.83 0,-411.17 0,-411.17 0,-407.33 3.83,-403.5 7.67,-403.5 7.67,-403.5 55.33,-403.5 55.33,-403.5 59.17,-403.5 63,-407.33 63,-411.17 63,-411.17 63,-418.83 63,-418.83 63,-422.67 59.17,-426.5 55.33,-426.5"/>
<text text-anchor="middle" x="31.5" y="-411.3" font-family="Arial" font-size="14.00" fill="#c6c5fe">index.ts</text>
</g>
<!-- index.ts&#45;&gt;../../renderer&#45;dom/src/index.ts -->
<g id="edge92" class="edge">
<title>index.ts&#45;&gt;../../renderer&#45;dom/src/index.ts</title>
<path fill="none" stroke="#757575" d="M63.07,-415C70.76,-415 79.47,-415 88.65,-415"/>
<polygon fill="#757575" stroke="#757575" points="88.77,-418.5 98.77,-415 88.77,-411.5 88.77,-418.5"/>
</g>
</g>
</svg>
