<?xml version="1.0" encoding="UTF-8" standalone="no"?>
<!DOCTYPE svg PUBLIC "-//W3C//DTD SVG 1.1//EN"
 "http://www.w3.org/Graphics/SVG/1.1/DTD/svg11.dtd">
<!-- Generated by graphviz version 2.44.1 (20200629.0846)
 -->
<!-- Title: G Pages: 1 -->
<svg width="2949pt" height="985pt"
 viewBox="0.00 0.00 2949.20 984.91" xmlns="http://www.w3.org/2000/svg" xmlns:xlink="http://www.w3.org/1999/xlink">
<g id="graph0" class="graph" transform="scale(1 1) rotate(0) translate(21.6 963.31)">
<title>G</title>
<polygon fill="#111111" stroke="transparent" points="-21.6,21.6 -21.6,-963.31 2927.6,-963.31 2927.6,21.6 -21.6,21.6"/>
<!-- ../../core/src/component.ts -->
<g id="node1" class="node">
<title>../../core/src/component.ts</title>
<path fill="none" stroke="#ff6c60" d="M1039.33,-604.5C1039.33,-604.5 881.67,-604.5 881.67,-604.5 877.83,-604.5 874,-600.67 874,-596.83 874,-596.83 874,-589.17 874,-589.17 874,-585.33 877.83,-581.5 881.67,-581.5 881.67,-581.5 1039.33,-581.5 1039.33,-581.5 1043.17,-581.5 1047,-585.33 1047,-589.17 1047,-589.17 1047,-596.83 1047,-596.83 1047,-600.67 1043.17,-604.5 1039.33,-604.5"/>
<text text-anchor="middle" x="960.5" y="-589.3" font-family="Arial" font-size="14.00" fill="#ff6c60">../../core/src/component.ts</text>
</g>
<!-- ../../core/src/componentOptions.ts -->
<g id="node2" class="node">
<title>../../core/src/componentOptions.ts</title>
<path fill="none" stroke="#ff6c60" d="M1295.33,-504.5C1295.33,-504.5 1090.67,-504.5 1090.67,-504.5 1086.83,-504.5 1083,-500.67 1083,-496.83 1083,-496.83 1083,-489.17 1083,-489.17 1083,-485.33 1086.83,-481.5 1090.67,-481.5 1090.67,-481.5 1295.33,-481.5 1295.33,-481.5 1299.17,-481.5 1303,-485.33 1303,-489.17 1303,-489.17 1303,-496.83 1303,-496.83 1303,-500.67 1299.17,-504.5 1295.33,-504.5"/>
<text text-anchor="middle" x="1193" y="-489.3" font-family="Arial" font-size="14.00" fill="#ff6c60">../../core/src/componentOptions.ts</text>
</g>
<!-- ../../core/src/component.ts&#45;&gt;../../core/src/componentOptions.ts -->
<g id="edge1" class="edge">
<title>../../core/src/component.ts&#45;&gt;../../core/src/componentOptions.ts</title>
<path fill="none" stroke="#757575" d="M979.59,-581.31C1014.58,-562.98 1092.61,-528.54 1143.72,-508.33"/>
<polygon fill="#757575" stroke="#757575" points="1145.21,-511.51 1153.25,-504.61 1142.66,-504.99 1145.21,-511.51"/>
</g>
<!-- ../../core/src/componentWatch.ts -->
<g id="node3" class="node">
<title>../../core/src/componentWatch.ts</title>
<path fill="none" stroke="#ff6c60" d="M1964.83,-815.5C1964.83,-815.5 1769.17,-815.5 1769.17,-815.5 1765.33,-815.5 1761.5,-811.67 1761.5,-807.83 1761.5,-807.83 1761.5,-800.17 1761.5,-800.17 1761.5,-796.33 1765.33,-792.5 1769.17,-792.5 1769.17,-792.5 1964.83,-792.5 1964.83,-792.5 1968.67,-792.5 1972.5,-796.33 1972.5,-800.17 1972.5,-800.17 1972.5,-807.83 1972.5,-807.83 1972.5,-811.67 1968.67,-815.5 1964.83,-815.5"/>
<text text-anchor="middle" x="1867" y="-800.3" font-family="Arial" font-size="14.00" fill="#ff6c60">../../core/src/componentWatch.ts</text>
</g>
<!-- ../../core/src/component.ts&#45;&gt;../../core/src/componentWatch.ts -->
<g id="edge2" class="edge">
<title>../../core/src/component.ts&#45;&gt;../../core/src/componentWatch.ts</title>
<path fill="none" stroke="#757575" d="M964.46,-604.74C973.37,-642.79 1004.34,-760.28 1083,-807 1192.6,-872.09 1561.76,-835.39 1751.42,-814.63"/>
<polygon fill="#757575" stroke="#757575" points="1751.86,-818.1 1761.42,-813.53 1751.1,-811.14 1751.86,-818.1"/>
</g>
<!-- ../../core/src/utils.ts -->
<g id="node4" class="node">
<title>../../core/src/utils.ts</title>
<path fill="none" stroke="#cfffac" d="M2159.83,-579.5C2159.83,-579.5 2046.17,-579.5 2046.17,-579.5 2042.33,-579.5 2038.5,-575.67 2038.5,-571.83 2038.5,-571.83 2038.5,-564.17 2038.5,-564.17 2038.5,-560.33 2042.33,-556.5 2046.17,-556.5 2046.17,-556.5 2159.83,-556.5 2159.83,-556.5 2163.67,-556.5 2167.5,-560.33 2167.5,-564.17 2167.5,-564.17 2167.5,-571.83 2167.5,-571.83 2167.5,-575.67 2163.67,-579.5 2159.83,-579.5"/>
<text text-anchor="middle" x="2103" y="-564.3" font-family="Arial" font-size="14.00" fill="#cfffac">../../core/src/utils.ts</text>
</g>
<!-- ../../core/src/component.ts&#45;&gt;../../core/src/utils.ts -->
<g id="edge3" class="edge">
<title>../../core/src/component.ts&#45;&gt;../../core/src/utils.ts</title>
<path fill="none" stroke="#757575" d="M968.17,-604.69C984.06,-631.29 1027.05,-696.07 1083,-723 1185.83,-772.49 1224.96,-738.55 1339,-743 1627.67,-754.26 1733.47,-813.1 1985,-671 2006.11,-659.07 2003.29,-646.56 2021,-630 2038.35,-613.77 2059.76,-597.53 2076.21,-585.74"/>
<polygon fill="#757575" stroke="#757575" points="2078.64,-588.31 2084.78,-579.68 2074.6,-582.59 2078.64,-588.31"/>
</g>
<!-- ../../core/src/vdom.ts -->
<g id="node5" class="node">
<title>../../core/src/vdom.ts</title>
<path fill="none" stroke="#ff6c60" d="M1470.33,-317.5C1470.33,-317.5 1346.67,-317.5 1346.67,-317.5 1342.83,-317.5 1339,-313.67 1339,-309.83 1339,-309.83 1339,-302.17 1339,-302.17 1339,-298.33 1342.83,-294.5 1346.67,-294.5 1346.67,-294.5 1470.33,-294.5 1470.33,-294.5 1474.17,-294.5 1478,-298.33 1478,-302.17 1478,-302.17 1478,-309.83 1478,-309.83 1478,-313.67 1474.17,-317.5 1470.33,-317.5"/>
<text text-anchor="middle" x="1408.5" y="-302.3" font-family="Arial" font-size="14.00" fill="#ff6c60">../../core/src/vdom.ts</text>
</g>
<!-- ../../core/src/component.ts&#45;&gt;../../core/src/vdom.ts -->
<g id="edge4" class="edge">
<title>../../core/src/component.ts&#45;&gt;../../core/src/vdom.ts</title>
<path fill="none" stroke="#757575" d="M963.95,-581.31C973.52,-544.86 1011.42,-435.6 1083,-382 1102.8,-367.17 1239.22,-334.59 1328.76,-316.98"/>
<polygon fill="#757575" stroke="#757575" points="1329.48,-320.41 1338.63,-315.07 1328.14,-313.54 1329.48,-320.41"/>
</g>
<!-- ../../observer/src/index.ts -->
<g id="node6" class="node">
<title>../../observer/src/index.ts</title>
<path fill="none" stroke="#ff6c60" d="M2177.33,-661.5C2177.33,-661.5 2028.67,-661.5 2028.67,-661.5 2024.83,-661.5 2021,-657.67 2021,-653.83 2021,-653.83 2021,-646.17 2021,-646.17 2021,-642.33 2024.83,-638.5 2028.67,-638.5 2028.67,-638.5 2177.33,-638.5 2177.33,-638.5 2181.17,-638.5 2185,-642.33 2185,-646.17 2185,-646.17 2185,-653.83 2185,-653.83 2185,-657.67 2181.17,-661.5 2177.33,-661.5"/>
<text text-anchor="middle" x="2103" y="-646.3" font-family="Arial" font-size="14.00" fill="#ff6c60">../../observer/src/index.ts</text>
</g>
<!-- ../../core/src/component.ts&#45;&gt;../../observer/src/index.ts -->
<g id="edge5" class="edge">
<title>../../core/src/component.ts&#45;&gt;../../observer/src/index.ts</title>
<path fill="none" stroke="#757575" d="M962.9,-604.73C968.62,-647 994.3,-792.39 1083,-857 1200.41,-942.53 1262.24,-896 1407.5,-896 1407.5,-896 1407.5,-896 1614.5,-896 1782.16,-896 1845.26,-917.64 1985,-825 2042.91,-786.61 2079.34,-708.72 2094.25,-671.17"/>
<polygon fill="#757575" stroke="#757575" points="2097.56,-672.31 2097.89,-661.72 2091.03,-669.8 2097.56,-672.31"/>
</g>
<!-- ../../core/src/componentOptions.ts&#45;&gt;../../core/src/component.ts -->
<g id="edge10" class="edge">
<title>../../core/src/componentOptions.ts&#45;&gt;../../core/src/component.ts</title>
<path fill="none" stroke="#757575" d="M1174.16,-504.56C1139.26,-522.88 1060.86,-557.48 1009.63,-577.73"/>
<polygon fill="#757575" stroke="#757575" points="1008.12,-574.56 1000.08,-581.45 1010.67,-581.08 1008.12,-574.56"/>
</g>
<!-- ../../core/src/componentOptions.ts&#45;&gt;../../core/src/vdom.ts -->
<g id="edge11" class="edge">
<title>../../core/src/componentOptions.ts&#45;&gt;../../core/src/vdom.ts</title>
<path fill="none" stroke="#757575" d="M1203.73,-481.45C1235.13,-449.57 1334.47,-362.04 1381.86,-323.88"/>
<polygon fill="#757575" stroke="#757575" points="1384.16,-326.52 1389.81,-317.56 1379.81,-321.04 1384.16,-326.52"/>
</g>
<!-- ../../core/src/componentWatch.ts&#45;&gt;../../core/src/component.ts -->
<g id="edge31" class="edge">
<title>../../core/src/componentWatch.ts&#45;&gt;../../core/src/component.ts</title>
<path fill="none" stroke="#757575" d="M1814.45,-815.54C1660.42,-842.33 1206.61,-898.42 1083,-825 1005.1,-778.73 973.98,-663.06 964.73,-614.56"/>
<polygon fill="#757575" stroke="#757575" points="968.14,-613.75 962.95,-604.51 961.24,-614.97 968.14,-613.75"/>
</g>
<!-- ../../core/src/componentWatch.ts&#45;&gt;../../core/src/componentOptions.ts -->
<g id="edge32" class="edge">
<title>../../core/src/componentWatch.ts&#45;&gt;../../core/src/componentOptions.ts</title>
<path fill="none" stroke="#757575" d="M1840.14,-792.4C1763.45,-757.96 1530.66,-653.08 1339,-563 1300.36,-544.84 1256.21,-523.43 1226.88,-509.12"/>
<polygon fill="#757575" stroke="#757575" points="1228.06,-505.79 1217.54,-504.55 1224.98,-512.08 1228.06,-505.79"/>
</g>
<!-- ../../core/src/componentWatch.ts&#45;&gt;../../observer/src/index.ts -->
<g id="edge33" class="edge">
<title>../../core/src/componentWatch.ts&#45;&gt;../../observer/src/index.ts</title>
<path fill="none" stroke="#757575" d="M1950.34,-792.43C1962.43,-788.84 1974.37,-784.15 1985,-778 2031.8,-750.93 2070.51,-698.86 2089.45,-670.18"/>
<polygon fill="#757575" stroke="#757575" points="2092.41,-672.05 2094.89,-661.75 2086.53,-668.25 2092.41,-672.05"/>
</g>
<!-- ../../core/src/vdom.ts&#45;&gt;../../core/src/component.ts -->
<g id="edge53" class="edge">
<title>../../core/src/vdom.ts&#45;&gt;../../core/src/component.ts</title>
<path fill="none" stroke="#757575" d="M1374.86,-317.58C1297.31,-339.11 1106.69,-382.26 1083,-400 1021.98,-445.69 985.43,-531.85 970.05,-571.92"/>
<polygon fill="#757575" stroke="#757575" points="966.77,-570.68 966.51,-581.27 973.32,-573.16 966.77,-570.68"/>
</g>
<!-- ../../core/src/vdom.ts&#45;&gt;../../core/src/componentOptions.ts -->
<g id="edge54" class="edge">
<title>../../core/src/vdom.ts&#45;&gt;../../core/src/componentOptions.ts</title>
<path fill="none" stroke="#757575" d="M1397.37,-317.96C1365.56,-350.14 1267.01,-436.96 1219.76,-475.02"/>
<polygon fill="#757575" stroke="#757575" points="1217.48,-472.36 1211.84,-481.32 1221.84,-477.84 1217.48,-472.36"/>
</g>
<!-- ../../core/src/componentProps.ts -->
<g id="node8" class="node">
<title>../../core/src/componentProps.ts</title>
<path fill="none" stroke="#ff6c60" d="M1963.33,-538.5C1963.33,-538.5 1770.67,-538.5 1770.67,-538.5 1766.83,-538.5 1763,-534.67 1763,-530.83 1763,-530.83 1763,-523.17 1763,-523.17 1763,-519.33 1766.83,-515.5 1770.67,-515.5 1770.67,-515.5 1963.33,-515.5 1963.33,-515.5 1967.17,-515.5 1971,-519.33 1971,-523.17 1971,-523.17 1971,-530.83 1971,-530.83 1971,-534.67 1967.17,-538.5 1963.33,-538.5"/>
<text text-anchor="middle" x="1867" y="-523.3" font-family="Arial" font-size="14.00" fill="#ff6c60">../../core/src/componentProps.ts</text>
</g>
<!-- ../../core/src/vdom.ts&#45;&gt;../../core/src/componentProps.ts -->
<g id="edge55" class="edge">
<title>../../core/src/vdom.ts&#45;&gt;../../core/src/componentProps.ts</title>
<path fill="none" stroke="#757575" d="M1422.56,-317.7C1441.6,-334.31 1478.58,-364.94 1514,-385 1521.26,-389.11 1737.61,-475.7 1827.46,-511.61"/>
<polygon fill="#757575" stroke="#757575" points="1826.43,-514.96 1837.01,-515.42 1829.03,-508.46 1826.43,-514.96"/>
</g>
<!-- ../../core/src/componentUtils.ts -->
<g id="node11" class="node">
<title>../../core/src/componentUtils.ts</title>
<path fill="none" stroke="#ff6c60" d="M1705.33,-498.5C1705.33,-498.5 1521.67,-498.5 1521.67,-498.5 1517.83,-498.5 1514,-494.67 1514,-490.83 1514,-490.83 1514,-483.17 1514,-483.17 1514,-479.33 1517.83,-475.5 1521.67,-475.5 1521.67,-475.5 1705.33,-475.5 1705.33,-475.5 1709.17,-475.5 1713,-479.33 1713,-483.17 1713,-483.17 1713,-490.83 1713,-490.83 1713,-494.67 1709.17,-498.5 1705.33,-498.5"/>
<text text-anchor="middle" x="1613.5" y="-483.3" font-family="Arial" font-size="14.00" fill="#ff6c60">../../core/src/componentUtils.ts</text>
</g>
<!-- ../../core/src/vdom.ts&#45;&gt;../../core/src/componentUtils.ts -->
<g id="edge56" class="edge">
<title>../../core/src/vdom.ts&#45;&gt;../../core/src/componentUtils.ts</title>
<path fill="none" stroke="#757575" d="M1435.62,-317.71C1449.68,-328.28 1466.45,-344.05 1478,-361 1502.49,-396.95 1481.48,-423.12 1514,-452 1525.83,-462.5 1541.41,-468.84 1556.68,-473.02"/>
<polygon fill="#757575" stroke="#757575" points="1556.08,-476.48 1566.62,-475.48 1557.76,-469.68 1556.08,-476.48"/>
</g>
<!-- ../../core/src/flags.ts -->
<g id="node12" class="node">
<title>../../core/src/flags.ts</title>
<path fill="none" stroke="#cfffac" d="M2162.33,-87.5C2162.33,-87.5 2043.67,-87.5 2043.67,-87.5 2039.83,-87.5 2036,-83.67 2036,-79.83 2036,-79.83 2036,-72.17 2036,-72.17 2036,-68.33 2039.83,-64.5 2043.67,-64.5 2043.67,-64.5 2162.33,-64.5 2162.33,-64.5 2166.17,-64.5 2170,-68.33 2170,-72.17 2170,-72.17 2170,-79.83 2170,-79.83 2170,-83.67 2166.17,-87.5 2162.33,-87.5"/>
<text text-anchor="middle" x="2103" y="-72.3" font-family="Arial" font-size="14.00" fill="#cfffac">../../core/src/flags.ts</text>
</g>
<!-- ../../core/src/vdom.ts&#45;&gt;../../core/src/flags.ts -->
<g id="edge57" class="edge">
<title>../../core/src/vdom.ts&#45;&gt;../../core/src/flags.ts</title>
<path fill="none" stroke="#757575" d="M1444.32,-294.44C1559.66,-256.13 1929.23,-133.38 2057.58,-90.75"/>
<polygon fill="#757575" stroke="#757575" points="2058.73,-94.06 2067.11,-87.59 2056.52,-87.42 2058.73,-94.06"/>
</g>
<!-- ../../observer/src/autorun.ts -->
<g id="node16" class="node">
<title>../../observer/src/autorun.ts</title>
<path fill="none" stroke="#ff6c60" d="M2668.33,-701.5C2668.33,-701.5 2506.67,-701.5 2506.67,-701.5 2502.83,-701.5 2499,-697.67 2499,-693.83 2499,-693.83 2499,-686.17 2499,-686.17 2499,-682.33 2502.83,-678.5 2506.67,-678.5 2506.67,-678.5 2668.33,-678.5 2668.33,-678.5 2672.17,-678.5 2676,-682.33 2676,-686.17 2676,-686.17 2676,-693.83 2676,-693.83 2676,-697.67 2672.17,-701.5 2668.33,-701.5"/>
<text text-anchor="middle" x="2587.5" y="-686.3" font-family="Arial" font-size="14.00" fill="#ff6c60">../../observer/src/autorun.ts</text>
</g>
<!-- ../../observer/src/index.ts&#45;&gt;../../observer/src/autorun.ts -->
<g id="edge69" class="edge">
<title>../../observer/src/index.ts&#45;&gt;../../observer/src/autorun.ts</title>
<path fill="none" stroke="#757575" d="M2119.63,-661.52C2141.16,-676.6 2181.74,-702.24 2221,-712 2328.09,-738.62 2458,-719.02 2530.54,-703.65"/>
<polygon fill="#757575" stroke="#757575" points="2531.36,-707.05 2540.39,-701.51 2529.88,-700.21 2531.36,-707.05"/>
</g>
<!-- ../../observer/src/operations.ts -->
<g id="node17" class="node">
<title>../../observer/src/operations.ts</title>
<path fill="none" stroke="#cfffac" d="M2898.33,-640.5C2898.33,-640.5 2719.67,-640.5 2719.67,-640.5 2715.83,-640.5 2712,-636.67 2712,-632.83 2712,-632.83 2712,-625.17 2712,-625.17 2712,-621.33 2715.83,-617.5 2719.67,-617.5 2719.67,-617.5 2898.33,-617.5 2898.33,-617.5 2902.17,-617.5 2906,-621.33 2906,-625.17 2906,-625.17 2906,-632.83 2906,-632.83 2906,-636.67 2902.17,-640.5 2898.33,-640.5"/>
<text text-anchor="middle" x="2809" y="-625.3" font-family="Arial" font-size="14.00" fill="#cfffac">../../observer/src/operations.ts</text>
</g>
<!-- ../../observer/src/index.ts&#45;&gt;../../observer/src/operations.ts -->
<g id="edge74" class="edge">
<title>../../observer/src/index.ts&#45;&gt;../../observer/src/operations.ts</title>
<path fill="none" stroke="#757575" d="M2159.99,-638.47C2179.24,-635.03 2200.98,-631.72 2221,-630 2388.6,-615.63 2584.11,-619.38 2701.86,-623.85"/>
<polygon fill="#757575" stroke="#757575" points="2701.83,-627.35 2711.96,-624.24 2702.1,-620.36 2701.83,-627.35"/>
</g>
<!-- ../../observer/src/state.ts -->
<g id="node18" class="node">
<title>../../observer/src/state.ts</title>
<path fill="none" stroke="#ff6c60" d="M2881.83,-701.5C2881.83,-701.5 2736.17,-701.5 2736.17,-701.5 2732.33,-701.5 2728.5,-697.67 2728.5,-693.83 2728.5,-693.83 2728.5,-686.17 2728.5,-686.17 2728.5,-682.33 2732.33,-678.5 2736.17,-678.5 2736.17,-678.5 2881.83,-678.5 2881.83,-678.5 2885.67,-678.5 2889.5,-682.33 2889.5,-686.17 2889.5,-686.17 2889.5,-693.83 2889.5,-693.83 2889.5,-697.67 2885.67,-701.5 2881.83,-701.5"/>
<text text-anchor="middle" x="2809" y="-686.3" font-family="Arial" font-size="14.00" fill="#ff6c60">../../observer/src/state.ts</text>
</g>
<!-- ../../observer/src/index.ts&#45;&gt;../../observer/src/state.ts -->
<g id="edge75" class="edge">
<title>../../observer/src/index.ts&#45;&gt;../../observer/src/state.ts</title>
<path fill="none" stroke="#757575" d="M2115.28,-661.62C2134.73,-680.72 2176.77,-718.04 2221,-732 2414.82,-793.16 2661.84,-733.91 2762.37,-704.45"/>
<polygon fill="#757575" stroke="#757575" points="2763.61,-707.74 2772.2,-701.53 2761.62,-701.03 2763.61,-707.74"/>
</g>
<!-- ../../observer/src/baseHandlers.ts -->
<g id="node19" class="node">
<title>../../observer/src/baseHandlers.ts</title>
<path fill="none" stroke="#ff6c60" d="M2441.83,-581.5C2441.83,-581.5 2242.17,-581.5 2242.17,-581.5 2238.33,-581.5 2234.5,-577.67 2234.5,-573.83 2234.5,-573.83 2234.5,-566.17 2234.5,-566.17 2234.5,-562.33 2238.33,-558.5 2242.17,-558.5 2242.17,-558.5 2441.83,-558.5 2441.83,-558.5 2445.67,-558.5 2449.5,-562.33 2449.5,-566.17 2449.5,-566.17 2449.5,-573.83 2449.5,-573.83 2449.5,-577.67 2445.67,-581.5 2441.83,-581.5"/>
<text text-anchor="middle" x="2342" y="-566.3" font-family="Arial" font-size="14.00" fill="#ff6c60">../../observer/src/baseHandlers.ts</text>
</g>
<!-- ../../observer/src/index.ts&#45;&gt;../../observer/src/baseHandlers.ts -->
<g id="edge70" class="edge">
<title>../../observer/src/index.ts&#45;&gt;../../observer/src/baseHandlers.ts</title>
<path fill="none" stroke="#757575" d="M2115.28,-638.45C2135.77,-623.7 2180.69,-600.49 2221,-587 2223.61,-586.13 2226.26,-585.27 2228.95,-584.45"/>
<polygon fill="#757575" stroke="#757575" points="2230.18,-587.73 2238.78,-581.55 2228.2,-581.02 2230.18,-587.73"/>
</g>
<!-- ../../observer/src/lock.ts -->
<g id="node20" class="node">
<title>../../observer/src/lock.ts</title>
<path fill="none" stroke="#cfffac" d="M2657.33,-542.5C2657.33,-542.5 2517.67,-542.5 2517.67,-542.5 2513.83,-542.5 2510,-538.67 2510,-534.83 2510,-534.83 2510,-527.17 2510,-527.17 2510,-523.33 2513.83,-519.5 2517.67,-519.5 2517.67,-519.5 2657.33,-519.5 2657.33,-519.5 2661.17,-519.5 2665,-523.33 2665,-527.17 2665,-527.17 2665,-534.83 2665,-534.83 2665,-538.67 2661.17,-542.5 2657.33,-542.5"/>
<text text-anchor="middle" x="2587.5" y="-527.3" font-family="Arial" font-size="14.00" fill="#cfffac">../../observer/src/lock.ts</text>
</g>
<!-- ../../observer/src/index.ts&#45;&gt;../../observer/src/lock.ts -->
<g id="edge73" class="edge">
<title>../../observer/src/index.ts&#45;&gt;../../observer/src/lock.ts</title>
<path fill="none" stroke="#757575" d="M2121.13,-638.45C2138.02,-626.76 2164.24,-607.78 2185,-589 2202.49,-573.17 2199.64,-560.02 2221,-550 2311.42,-507.58 2428.61,-510.09 2505.6,-518.35"/>
<polygon fill="#757575" stroke="#757575" points="2505.39,-521.85 2515.72,-519.49 2506.17,-514.89 2505.39,-521.85"/>
</g>
<!-- ../../observer/src/collectionHandlers.ts -->
<g id="node21" class="node">
<title>../../observer/src/collectionHandlers.ts</title>
<path fill="none" stroke="#ff6c60" d="M2455.33,-661.5C2455.33,-661.5 2228.67,-661.5 2228.67,-661.5 2224.83,-661.5 2221,-657.67 2221,-653.83 2221,-653.83 2221,-646.17 2221,-646.17 2221,-642.33 2224.83,-638.5 2228.67,-638.5 2228.67,-638.5 2455.33,-638.5 2455.33,-638.5 2459.17,-638.5 2463,-642.33 2463,-646.17 2463,-646.17 2463,-653.83 2463,-653.83 2463,-657.67 2459.17,-661.5 2455.33,-661.5"/>
<text text-anchor="middle" x="2342" y="-646.3" font-family="Arial" font-size="14.00" fill="#ff6c60">../../observer/src/collectionHandlers.ts</text>
</g>
<!-- ../../observer/src/index.ts&#45;&gt;../../observer/src/collectionHandlers.ts -->
<g id="edge71" class="edge">
<title>../../observer/src/index.ts&#45;&gt;../../observer/src/collectionHandlers.ts</title>
<path fill="none" stroke="#757575" d="M2185.23,-643.56C2193.51,-643.42 2202.07,-643.32 2210.7,-643.28"/>
<polygon fill="#757575" stroke="#757575" points="2210.88,-646.78 2220.87,-643.25 2210.86,-639.78 2210.88,-646.78"/>
</g>
<!-- ../../observer/src/computed.ts -->
<g id="node22" class="node">
<title>../../observer/src/computed.ts</title>
<path fill="none" stroke="#ff6c60" d="M2429.83,-702.5C2429.83,-702.5 2254.17,-702.5 2254.17,-702.5 2250.33,-702.5 2246.5,-698.67 2246.5,-694.83 2246.5,-694.83 2246.5,-687.17 2246.5,-687.17 2246.5,-683.33 2250.33,-679.5 2254.17,-679.5 2254.17,-679.5 2429.83,-679.5 2429.83,-679.5 2433.67,-679.5 2437.5,-683.33 2437.5,-687.17 2437.5,-687.17 2437.5,-694.83 2437.5,-694.83 2437.5,-698.67 2433.67,-702.5 2429.83,-702.5"/>
<text text-anchor="middle" x="2342" y="-687.3" font-family="Arial" font-size="14.00" fill="#ff6c60">../../observer/src/computed.ts</text>
</g>
<!-- ../../observer/src/index.ts&#45;&gt;../../observer/src/computed.ts -->
<g id="edge72" class="edge">
<title>../../observer/src/index.ts&#45;&gt;../../observer/src/computed.ts</title>
<path fill="none" stroke="#757575" d="M2185.17,-655.8C2197.18,-657.84 2209.41,-659.99 2221,-662 2248.74,-666.8 2280.12,-672.02 2303.83,-677.2"/>
<polygon fill="#757575" stroke="#757575" points="2303.29,-680.66 2313.82,-679.49 2304.85,-673.84 2303.29,-680.66"/>
</g>
<!-- ../../core/src/componentComputed.ts -->
<g id="node7" class="node">
<title>../../core/src/componentComputed.ts</title>
<path fill="none" stroke="#ff6c60" d="M1977.33,-661.5C1977.33,-661.5 1756.67,-661.5 1756.67,-661.5 1752.83,-661.5 1749,-657.67 1749,-653.83 1749,-653.83 1749,-646.17 1749,-646.17 1749,-642.33 1752.83,-638.5 1756.67,-638.5 1756.67,-638.5 1977.33,-638.5 1977.33,-638.5 1981.17,-638.5 1985,-642.33 1985,-646.17 1985,-646.17 1985,-653.83 1985,-653.83 1985,-657.67 1981.17,-661.5 1977.33,-661.5"/>
<text text-anchor="middle" x="1867" y="-646.3" font-family="Arial" font-size="14.00" fill="#ff6c60">../../core/src/componentComputed.ts</text>
</g>
<!-- ../../core/src/componentComputed.ts&#45;&gt;../../core/src/component.ts -->
<g id="edge6" class="edge">
<title>../../core/src/componentComputed.ts&#45;&gt;../../core/src/component.ts</title>
<path fill="none" stroke="#757575" d="M1828.31,-661.57C1712.82,-695.01 1355.25,-783.57 1083,-689 1039.38,-673.85 999.6,-635.82 978.14,-612.43"/>
<polygon fill="#757575" stroke="#757575" points="980.62,-609.94 971.34,-604.82 975.4,-614.61 980.62,-609.94"/>
</g>
<!-- ../../core/src/componentComputed.ts&#45;&gt;../../core/src/componentOptions.ts -->
<g id="edge7" class="edge">
<title>../../core/src/componentComputed.ts&#45;&gt;../../core/src/componentOptions.ts</title>
<path fill="none" stroke="#757575" d="M1793.76,-638.5C1778.92,-635.9 1763.42,-633.01 1749,-630 1562.74,-591.14 1344.19,-533.65 1246.18,-507.23"/>
<polygon fill="#757575" stroke="#757575" points="1246.8,-503.77 1236.23,-504.54 1244.97,-510.53 1246.8,-503.77"/>
</g>
<!-- ../../core/src/componentComputed.ts&#45;&gt;../../core/src/utils.ts -->
<g id="edge8" class="edge">
<title>../../core/src/componentComputed.ts&#45;&gt;../../core/src/utils.ts</title>
<path fill="none" stroke="#757575" d="M1954.41,-638.44C1964.84,-636.11 1975.25,-633.32 1985,-630 2018.04,-618.75 2053.05,-599.03 2076.07,-584.85"/>
<polygon fill="#757575" stroke="#757575" points="2077.95,-587.8 2084.57,-579.53 2074.23,-581.87 2077.95,-587.8"/>
</g>
<!-- ../../core/src/componentComputed.ts&#45;&gt;../../observer/src/index.ts -->
<g id="edge9" class="edge">
<title>../../core/src/componentComputed.ts&#45;&gt;../../observer/src/index.ts</title>
<path fill="none" stroke="#757575" d="M1985.34,-650C1993.86,-650 2002.37,-650 2010.69,-650"/>
<polygon fill="#757575" stroke="#757575" points="2010.75,-653.5 2020.75,-650 2010.75,-646.5 2010.75,-653.5"/>
</g>
<!-- ../../core/src/componentProps.ts&#45;&gt;../../core/src/component.ts -->
<g id="edge12" class="edge">
<title>../../core/src/componentProps.ts&#45;&gt;../../core/src/component.ts</title>
<path fill="none" stroke="#757575" d="M1762.7,-534.54C1586,-547.43 1228.23,-573.54 1057.01,-586.03"/>
<polygon fill="#757575" stroke="#757575" points="1056.72,-582.54 1047,-586.76 1057.23,-589.52 1056.72,-582.54"/>
</g>
<!-- ../../core/src/componentProps.ts&#45;&gt;../../core/src/componentOptions.ts -->
<g id="edge13" class="edge">
<title>../../core/src/componentProps.ts&#45;&gt;../../core/src/componentOptions.ts</title>
<path fill="none" stroke="#757575" d="M1762.81,-521.78C1641.64,-515.65 1441.04,-505.5 1313.3,-499.04"/>
<polygon fill="#757575" stroke="#757575" points="1313.25,-495.53 1303.09,-498.52 1312.9,-502.52 1313.25,-495.53"/>
</g>
<!-- ../../core/src/componentProps.ts&#45;&gt;../../core/src/utils.ts -->
<g id="edge14" class="edge">
<title>../../core/src/componentProps.ts&#45;&gt;../../core/src/utils.ts</title>
<path fill="none" stroke="#757575" d="M1933.8,-538.53C1963.2,-543.68 1997.96,-549.77 2028.22,-555.07"/>
<polygon fill="#757575" stroke="#757575" points="2027.85,-558.56 2038.3,-556.84 2029.06,-551.67 2027.85,-558.56"/>
</g>
<!-- ../../core/src/componentProps.ts&#45;&gt;../../observer/src/index.ts -->
<g id="edge15" class="edge">
<title>../../core/src/componentProps.ts&#45;&gt;../../observer/src/index.ts</title>
<path fill="none" stroke="#757575" d="M1963.78,-538.57C1971.18,-541.14 1978.35,-544.25 1985,-548 2006.12,-559.92 2003.22,-572.51 2021,-589 2038.21,-604.96 2059.46,-620.84 2075.88,-632.39"/>
<polygon fill="#757575" stroke="#757575" points="2074.23,-635.51 2084.44,-638.34 2078.22,-629.76 2074.23,-635.51"/>
</g>
<!-- ../../core/src/componentProxy.ts -->
<g id="node9" class="node">
<title>../../core/src/componentProxy.ts</title>
<path fill="none" stroke="#ff6c60" d="M1962.33,-579.5C1962.33,-579.5 1771.67,-579.5 1771.67,-579.5 1767.83,-579.5 1764,-575.67 1764,-571.83 1764,-571.83 1764,-564.17 1764,-564.17 1764,-560.33 1767.83,-556.5 1771.67,-556.5 1771.67,-556.5 1962.33,-556.5 1962.33,-556.5 1966.17,-556.5 1970,-560.33 1970,-564.17 1970,-564.17 1970,-571.83 1970,-571.83 1970,-575.67 1966.17,-579.5 1962.33,-579.5"/>
<text text-anchor="middle" x="1867" y="-564.3" font-family="Arial" font-size="14.00" fill="#ff6c60">../../core/src/componentProxy.ts</text>
</g>
<!-- ../../core/src/componentProxy.ts&#45;&gt;../../core/src/component.ts -->
<g id="edge16" class="edge">
<title>../../core/src/componentProxy.ts&#45;&gt;../../core/src/component.ts</title>
<path fill="none" stroke="#757575" d="M1797.12,-579.56C1702.88,-595.15 1538.54,-621.5 1478,-626 1302.93,-639.01 1257.01,-649.21 1083,-626 1056.39,-622.45 1027.34,-614.71 1004.33,-607.62"/>
<polygon fill="#757575" stroke="#757575" points="1005.12,-604.2 994.53,-604.53 1003.02,-610.87 1005.12,-604.2"/>
</g>
<!-- ../../core/src/componentState.ts -->
<g id="node10" class="node">
<title>../../core/src/componentState.ts</title>
<path fill="none" stroke="#ff6c60" d="M1961.33,-620.5C1961.33,-620.5 1772.67,-620.5 1772.67,-620.5 1768.83,-620.5 1765,-616.67 1765,-612.83 1765,-612.83 1765,-605.17 1765,-605.17 1765,-601.33 1768.83,-597.5 1772.67,-597.5 1772.67,-597.5 1961.33,-597.5 1961.33,-597.5 1965.17,-597.5 1969,-601.33 1969,-605.17 1969,-605.17 1969,-612.83 1969,-612.83 1969,-616.67 1965.17,-620.5 1961.33,-620.5"/>
<text text-anchor="middle" x="1867" y="-605.3" font-family="Arial" font-size="14.00" fill="#ff6c60">../../core/src/componentState.ts</text>
</g>
<!-- ../../core/src/componentState.ts&#45;&gt;../../core/src/component.ts -->
<g id="edge17" class="edge">
<title>../../core/src/componentState.ts&#45;&gt;../../core/src/component.ts</title>
<path fill="none" stroke="#757575" d="M1804.13,-620.52C1727.79,-634.09 1593.88,-655.83 1478,-664 1302.88,-676.35 1252.45,-709.88 1083,-664 1045.15,-653.75 1007,-628.45 983.81,-610.99"/>
<polygon fill="#757575" stroke="#757575" points="985.74,-608.06 975.68,-604.74 981.47,-613.61 985.74,-608.06"/>
</g>
<!-- ../../core/src/componentState.ts&#45;&gt;../../core/src/utils.ts -->
<g id="edge18" class="edge">
<title>../../core/src/componentState.ts&#45;&gt;../../core/src/utils.ts</title>
<path fill="none" stroke="#757575" d="M1936.07,-597.46C1952.12,-594.71 1969.17,-591.77 1985,-589 1999.04,-586.54 2014.02,-583.88 2028.41,-581.3"/>
<polygon fill="#757575" stroke="#757575" points="2029.03,-584.75 2038.26,-579.54 2027.8,-577.86 2029.03,-584.75"/>
</g>
<!-- ../../core/src/componentState.ts&#45;&gt;../../observer/src/index.ts -->
<g id="edge19" class="edge">
<title>../../core/src/componentState.ts&#45;&gt;../../observer/src/index.ts</title>
<path fill="none" stroke="#757575" d="M1933.8,-620.53C1962.59,-625.57 1996.52,-631.52 2026.34,-636.74"/>
<polygon fill="#757575" stroke="#757575" points="2025.83,-640.21 2036.28,-638.49 2027.04,-633.31 2025.83,-640.21"/>
</g>
<!-- ../../core/src/componentUtils.ts&#45;&gt;../../core/src/component.ts -->
<g id="edge20" class="edge">
<title>../../core/src/componentUtils.ts&#45;&gt;../../core/src/component.ts</title>
<path fill="none" stroke="#757575" d="M1541.68,-498.53C1419.82,-518.37 1171.19,-558.86 1042.59,-579.8"/>
<polygon fill="#757575" stroke="#757575" points="1041.72,-576.39 1032.41,-581.45 1042.84,-583.3 1041.72,-576.39"/>
</g>
<!-- ../../core/src/componentUtils.ts&#45;&gt;../../core/src/componentOptions.ts -->
<g id="edge22" class="edge">
<title>../../core/src/componentUtils.ts&#45;&gt;../../core/src/componentOptions.ts</title>
<path fill="none" stroke="#757575" d="M1513.71,-484.54C1501.68,-484.32 1489.56,-484.13 1478,-484 1416.23,-483.31 1400.75,-482.09 1339,-484 1330.66,-484.26 1322.06,-484.6 1313.41,-485"/>
<polygon fill="#757575" stroke="#757575" points="1313.05,-481.51 1303.23,-485.49 1313.38,-488.5 1313.05,-481.51"/>
</g>
<!-- ../../core/src/componentUtils.ts&#45;&gt;../../core/src/componentWatch.ts -->
<g id="edge26" class="edge">
<title>../../core/src/componentUtils.ts&#45;&gt;../../core/src/componentWatch.ts</title>
<path fill="none" stroke="#757575" d="M1622.64,-498.9C1643.06,-528.58 1698.47,-608.05 1749,-671 1782.52,-712.77 1824.58,-759.26 1848.05,-784.72"/>
<polygon fill="#757575" stroke="#757575" points="1845.62,-787.25 1854.98,-792.21 1850.76,-782.49 1845.62,-787.25"/>
</g>
<!-- ../../core/src/componentUtils.ts&#45;&gt;../../core/src/utils.ts -->
<g id="edge29" class="edge">
<title>../../core/src/componentUtils.ts&#45;&gt;../../core/src/utils.ts</title>
<path fill="none" stroke="#757575" d="M1713.04,-481.09C1788.75,-479.21 1895.22,-482.42 1985,-507 2018.94,-516.29 2054.27,-536.4 2077.11,-550.99"/>
<polygon fill="#757575" stroke="#757575" points="2075.22,-553.94 2085.51,-556.47 2079.05,-548.08 2075.22,-553.94"/>
</g>
<!-- ../../core/src/componentUtils.ts&#45;&gt;../../core/src/vdom.ts -->
<g id="edge30" class="edge">
<title>../../core/src/componentUtils.ts&#45;&gt;../../core/src/vdom.ts</title>
<path fill="none" stroke="#757575" d="M1520.69,-475.24C1518.35,-473.62 1516.12,-471.88 1514,-470 1481.48,-441.12 1502.49,-414.95 1478,-379 1463.62,-357.89 1441.13,-338.61 1425.87,-324.78"/>
<polygon fill="#757575" stroke="#757575" points="1427.95,-321.93 1418.24,-317.67 1423.18,-327.05 1427.95,-321.93"/>
</g>
<!-- ../../core/src/componentUtils.ts&#45;&gt;../../core/src/componentComputed.ts -->
<g id="edge21" class="edge">
<title>../../core/src/componentUtils.ts&#45;&gt;../../core/src/componentComputed.ts</title>
<path fill="none" stroke="#757575" d="M1621.57,-498.64C1639.19,-526.53 1688.04,-597.28 1749,-630 1752.28,-631.76 1755.68,-633.37 1759.16,-634.85"/>
<polygon fill="#757575" stroke="#757575" points="1757.98,-638.14 1768.57,-638.44 1760.48,-631.6 1757.98,-638.14"/>
</g>
<!-- ../../core/src/componentUtils.ts&#45;&gt;../../core/src/componentProps.ts -->
<g id="edge23" class="edge">
<title>../../core/src/componentUtils.ts&#45;&gt;../../core/src/componentProps.ts</title>
<path fill="none" stroke="#757575" d="M1686.91,-498.52C1717.15,-503.33 1752.46,-508.94 1783.68,-513.91"/>
<polygon fill="#757575" stroke="#757575" points="1783.24,-517.38 1793.67,-515.5 1784.34,-510.47 1783.24,-517.38"/>
</g>
<!-- ../../core/src/componentUtils.ts&#45;&gt;../../core/src/componentProxy.ts -->
<g id="edge24" class="edge">
<title>../../core/src/componentUtils.ts&#45;&gt;../../core/src/componentProxy.ts</title>
<path fill="none" stroke="#757575" d="M1635.73,-498.7C1661.69,-512.51 1707.33,-535.22 1749,-548 1756.63,-550.34 1764.64,-552.43 1772.72,-554.29"/>
<polygon fill="#757575" stroke="#757575" points="1772.09,-557.74 1782.61,-556.45 1773.58,-550.9 1772.09,-557.74"/>
</g>
<!-- ../../core/src/componentUtils.ts&#45;&gt;../../core/src/componentState.ts -->
<g id="edge25" class="edge">
<title>../../core/src/componentUtils.ts&#45;&gt;../../core/src/componentState.ts</title>
<path fill="none" stroke="#757575" d="M1625.84,-498.74C1647.53,-520.43 1697.38,-566.62 1749,-589 1753.72,-591.05 1758.64,-592.89 1763.67,-594.54"/>
<polygon fill="#757575" stroke="#757575" points="1762.86,-597.95 1773.44,-597.49 1764.88,-591.25 1762.86,-597.95"/>
</g>
<!-- ../../core/src/componentUtils.ts&#45;&gt;../../core/src/flags.ts -->
<g id="edge27" class="edge">
<title>../../core/src/componentUtils.ts&#45;&gt;../../core/src/flags.ts</title>
<path fill="none" stroke="#757575" d="M1679.13,-475.49C1760.06,-458.01 1898.55,-417.55 1985,-334 2055.87,-265.51 2087.48,-146.16 2097.87,-97.54"/>
<polygon fill="#757575" stroke="#757575" points="2101.34,-98.02 2099.92,-87.52 2094.48,-96.62 2101.34,-98.02"/>
</g>
<!-- ../../core/src/h.ts -->
<g id="node13" class="node">
<title>../../core/src/h.ts</title>
<path fill="none" stroke="#ff6c60" d="M1915.83,-325.5C1915.83,-325.5 1818.17,-325.5 1818.17,-325.5 1814.33,-325.5 1810.5,-321.67 1810.5,-317.83 1810.5,-317.83 1810.5,-310.17 1810.5,-310.17 1810.5,-306.33 1814.33,-302.5 1818.17,-302.5 1818.17,-302.5 1915.83,-302.5 1915.83,-302.5 1919.67,-302.5 1923.5,-306.33 1923.5,-310.17 1923.5,-310.17 1923.5,-317.83 1923.5,-317.83 1923.5,-321.67 1919.67,-325.5 1915.83,-325.5"/>
<text text-anchor="middle" x="1867" y="-310.3" font-family="Arial" font-size="14.00" fill="#ff6c60">../../core/src/h.ts</text>
</g>
<!-- ../../core/src/componentUtils.ts&#45;&gt;../../core/src/h.ts -->
<g id="edge28" class="edge">
<title>../../core/src/componentUtils.ts&#45;&gt;../../core/src/h.ts</title>
<path fill="none" stroke="#757575" d="M1632.83,-475.47C1652.75,-462.86 1685.41,-441.91 1713,-423 1729.28,-411.84 1732.95,-408.49 1749,-397 1780.78,-374.25 1817.57,-348.2 1841.28,-331.44"/>
<polygon fill="#757575" stroke="#757575" points="1843.54,-334.13 1849.69,-325.5 1839.5,-328.41 1843.54,-334.13"/>
</g>
<!-- ../../core/src/h.ts&#45;&gt;../../core/src/component.ts -->
<g id="edge41" class="edge">
<title>../../core/src/h.ts&#45;&gt;../../core/src/component.ts</title>
<path fill="none" stroke="#757575" d="M1810.37,-315.97C1740.6,-319.19 1617.56,-327.31 1514,-347 1416.03,-365.63 1168.9,-421.34 1083,-472 1037.61,-498.76 996.91,-546.36 976.11,-573.19"/>
<polygon fill="#757575" stroke="#757575" points="973.1,-571.35 969.84,-581.43 978.68,-575.59 973.1,-571.35"/>
</g>
<!-- ../../core/src/h.ts&#45;&gt;../../core/src/componentOptions.ts -->
<g id="edge42" class="edge">
<title>../../core/src/h.ts&#45;&gt;../../core/src/componentOptions.ts</title>
<path fill="none" stroke="#757575" d="M1810.21,-318.12C1790.58,-320.49 1768.56,-324.2 1749,-330 1732.04,-335.04 1729.57,-340.8 1713,-347 1551.52,-407.36 1353.76,-456.44 1255.51,-479.22"/>
<polygon fill="#757575" stroke="#757575" points="1254.7,-475.82 1245.74,-481.48 1256.27,-482.64 1254.7,-475.82"/>
</g>
<!-- ../../core/src/h.ts&#45;&gt;../../core/src/vdom.ts -->
<g id="edge44" class="edge">
<title>../../core/src/h.ts&#45;&gt;../../core/src/vdom.ts</title>
<path fill="none" stroke="#757575" d="M1810.28,-313.02C1729.71,-311.61 1580.3,-308.99 1488.42,-307.38"/>
<polygon fill="#757575" stroke="#757575" points="1488.4,-303.88 1478.34,-307.21 1488.27,-310.88 1488.4,-303.88"/>
</g>
<!-- ../../core/src/h.ts&#45;&gt;../../core/src/flags.ts -->
<g id="edge43" class="edge">
<title>../../core/src/h.ts&#45;&gt;../../core/src/flags.ts</title>
<path fill="none" stroke="#757575" d="M1879.6,-302.2C1917.35,-263.8 2036.88,-142.23 2083.31,-95.01"/>
<polygon fill="#757575" stroke="#757575" points="2086.09,-97.18 2090.6,-87.59 2081.1,-92.27 2086.09,-97.18"/>
</g>
<!-- ../../core/src/createRenderer.ts -->
<g id="node14" class="node">
<title>../../core/src/createRenderer.ts</title>
<path fill="none" stroke="#c6c5fe" d="M830.33,-227.5C830.33,-227.5 647.67,-227.5 647.67,-227.5 643.83,-227.5 640,-223.67 640,-219.83 640,-219.83 640,-212.17 640,-212.17 640,-208.33 643.83,-204.5 647.67,-204.5 647.67,-204.5 830.33,-204.5 830.33,-204.5 834.17,-204.5 838,-208.33 838,-212.17 838,-212.17 838,-219.83 838,-219.83 838,-223.67 834.17,-227.5 830.33,-227.5"/>
<text text-anchor="middle" x="739" y="-212.3" font-family="Arial" font-size="14.00" fill="#c6c5fe">../../core/src/createRenderer.ts</text>
</g>
<!-- ../../core/src/createRenderer.ts&#45;&gt;../../core/src/component.ts -->
<g id="edge34" class="edge">
<title>../../core/src/createRenderer.ts&#45;&gt;../../core/src/component.ts</title>
<path fill="none" stroke="#757575" d="M746.81,-227.7C777.98,-281.24 907.28,-503.31 947.5,-572.4"/>
<polygon fill="#757575" stroke="#757575" points="944.71,-574.56 952.77,-581.44 950.76,-571.04 944.71,-574.56"/>
</g>
<!-- ../../core/src/createRenderer.ts&#45;&gt;../../core/src/utils.ts -->
<g id="edge38" class="edge">
<title>../../core/src/createRenderer.ts&#45;&gt;../../core/src/utils.ts</title>
<path fill="none" stroke="#757575" d="M771.76,-204.36C791.62,-196.38 817.26,-184.77 838,-171 856.08,-158.99 854.08,-146.62 874,-138 1004.07,-81.68 1050.26,-114 1192,-114 1192,-114 1192,-114 1614.5,-114 1779.51,-114 1857.2,-33.61 1985,-138 2050.38,-191.41 2089.32,-466.25 2099.38,-546.17"/>
<polygon fill="#757575" stroke="#757575" points="2095.91,-546.62 2100.61,-556.12 2102.86,-545.76 2095.91,-546.62"/>
</g>
<!-- ../../core/src/createRenderer.ts&#45;&gt;../../core/src/vdom.ts -->
<g id="edge39" class="edge">
<title>../../core/src/createRenderer.ts&#45;&gt;../../core/src/vdom.ts</title>
<path fill="none" stroke="#757575" d="M780.75,-227.55C807.15,-234.66 842.38,-243.44 874,-249 959.3,-263.99 1202.2,-287.28 1328.71,-298.9"/>
<polygon fill="#757575" stroke="#757575" points="1328.45,-302.39 1338.73,-299.82 1329.09,-295.42 1328.45,-302.39"/>
</g>
<!-- ../../core/src/createRenderer.ts&#45;&gt;../../observer/src/index.ts -->
<g id="edge40" class="edge">
<title>../../core/src/createRenderer.ts&#45;&gt;../../observer/src/index.ts</title>
<path fill="none" stroke="#757575" d="M788.84,-204.48C871.39,-186.06 1043.99,-152 1192,-152 1192,-152 1192,-152 1614.5,-152 1790.69,-152 1876.41,-154.26 1985,-293 2066.68,-397.36 1954.79,-474.2 2021,-589 2032.01,-608.09 2051.62,-623.1 2068.79,-633.45"/>
<polygon fill="#757575" stroke="#757575" points="2067.07,-636.5 2077.48,-638.43 2070.55,-630.42 2067.07,-636.5"/>
</g>
<!-- ../../core/src/createRenderer.ts&#45;&gt;../../core/src/componentProps.ts -->
<g id="edge35" class="edge">
<title>../../core/src/createRenderer.ts&#45;&gt;../../core/src/componentProps.ts</title>
<path fill="none" stroke="#757575" d="M832.1,-204.47C974.72,-190.07 1255.74,-175.54 1478,-250 1592.21,-288.26 1616.01,-313.57 1713,-385 1766.08,-424.09 1820.97,-479.32 1848.31,-508.02"/>
<polygon fill="#757575" stroke="#757575" points="1845.85,-510.51 1855.26,-515.38 1850.93,-505.7 1845.85,-510.51"/>
</g>
<!-- ../../core/src/createRenderer.ts&#45;&gt;../../core/src/componentUtils.ts -->
<g id="edge36" class="edge">
<title>../../core/src/createRenderer.ts&#45;&gt;../../core/src/componentUtils.ts</title>
<path fill="none" stroke="#757575" d="M838.02,-219.37C1027.2,-226.7 1428.48,-246.62 1478,-285 1515.34,-313.93 1489.04,-344.9 1514,-385 1534.76,-418.36 1567.92,-449.77 1589.95,-468.7"/>
<polygon fill="#757575" stroke="#757575" points="1587.9,-471.54 1597.8,-475.32 1592.41,-466.19 1587.9,-471.54"/>
</g>
<!-- ../../core/src/createRenderer.ts&#45;&gt;../../core/src/flags.ts -->
<g id="edge37" class="edge">
<title>../../core/src/createRenderer.ts&#45;&gt;../../core/src/flags.ts</title>
<path fill="none" stroke="#757575" d="M780.36,-204.4C799.64,-197.25 821.94,-186.45 838,-171 863.5,-146.47 844.03,-118.81 874,-100 1066.19,20.64 1787.62,-42.73 2025.43,-67.53"/>
<polygon fill="#757575" stroke="#757575" points="2025.4,-71.04 2035.71,-68.61 2026.13,-64.08 2025.4,-71.04"/>
</g>
<!-- ../../core/src/index.ts -->
<g id="node15" class="node">
<title>../../core/src/index.ts</title>
<path fill="none" stroke="#c6c5fe" d="M596.33,-388.5C596.33,-388.5 474.67,-388.5 474.67,-388.5 470.83,-388.5 467,-384.67 467,-380.83 467,-380.83 467,-373.17 467,-373.17 467,-369.33 470.83,-365.5 474.67,-365.5 474.67,-365.5 596.33,-365.5 596.33,-365.5 600.17,-365.5 604,-369.33 604,-373.17 604,-373.17 604,-380.83 604,-380.83 604,-384.67 600.17,-388.5 596.33,-388.5"/>
<text text-anchor="middle" x="535.5" y="-373.3" font-family="Arial" font-size="14.00" fill="#c6c5fe">../../core/src/index.ts</text>
</g>
<!-- ../../core/src/index.ts&#45;&gt;../../core/src/component.ts -->
<g id="edge45" class="edge">
<title>../../core/src/index.ts&#45;&gt;../../core/src/component.ts</title>
<path fill="none" stroke="#757575" d="M542.87,-388.54C557.01,-413.08 593.49,-470.67 640,-501 707.61,-545.08 796.67,-568.46 863.59,-580.59"/>
<polygon fill="#757575" stroke="#757575" points="863.26,-584.09 873.71,-582.37 864.47,-577.19 863.26,-584.09"/>
</g>
<!-- ../../core/src/index.ts&#45;&gt;../../core/src/componentOptions.ts -->
<g id="edge46" class="edge">
<title>../../core/src/index.ts&#45;&gt;../../core/src/componentOptions.ts</title>
<path fill="none" stroke="#757575" d="M546.9,-388.62C564.15,-406.98 600.7,-442.14 640,-457 781.47,-510.51 957.8,-511.8 1072.55,-504.88"/>
<polygon fill="#757575" stroke="#757575" points="1073.01,-508.36 1082.77,-504.23 1072.57,-501.37 1073.01,-508.36"/>
</g>
<!-- ../../core/src/index.ts&#45;&gt;../../core/src/vdom.ts -->
<g id="edge51" class="edge">
<title>../../core/src/index.ts&#45;&gt;../../core/src/vdom.ts</title>
<path fill="none" stroke="#757575" d="M604.17,-369.99C707.38,-359.46 910.33,-339.37 1083,-326 1166.73,-319.51 1262.75,-313.81 1328.49,-310.17"/>
<polygon fill="#757575" stroke="#757575" points="1328.98,-313.65 1338.77,-309.61 1328.59,-306.66 1328.98,-313.65"/>
</g>
<!-- ../../core/src/index.ts&#45;&gt;../../observer/src/index.ts -->
<g id="edge52" class="edge">
<title>../../core/src/index.ts&#45;&gt;../../observer/src/index.ts</title>
<path fill="none" stroke="#757575" d="M539.04,-388.63C557.24,-468.62 675.36,-934 959.5,-934 959.5,-934 959.5,-934 1614.5,-934 1781.24,-934 1849.74,-972.51 1985,-875 2055.61,-824.1 2086.94,-717.63 2097.55,-671.77"/>
<polygon fill="#757575" stroke="#757575" points="2101.02,-672.25 2099.76,-661.73 2094.19,-670.75 2101.02,-672.25"/>
</g>
<!-- ../../core/src/index.ts&#45;&gt;../../core/src/componentUtils.ts -->
<g id="edge47" class="edge">
<title>../../core/src/index.ts&#45;&gt;../../core/src/componentUtils.ts</title>
<path fill="none" stroke="#757575" d="M604.22,-383.92C785.38,-402.44 1282.39,-453.25 1503.71,-475.88"/>
<polygon fill="#757575" stroke="#757575" points="1503.42,-479.37 1513.72,-476.9 1504.13,-472.4 1503.42,-479.37"/>
</g>
<!-- ../../core/src/index.ts&#45;&gt;../../core/src/flags.ts -->
<g id="edge49" class="edge">
<title>../../core/src/index.ts&#45;&gt;../../core/src/flags.ts</title>
<path fill="none" stroke="#757575" d="M537.68,-365.43C542.42,-324.91 563.68,-187.9 640,-114 748.31,-9.12 808.73,0 959.5,0 959.5,0 959.5,0 1614.5,0 1780.17,0 1822.65,-8.01 1985,-41 2010.04,-46.09 2037.44,-54.14 2059.43,-61.25"/>
<polygon fill="#757575" stroke="#757575" points="2058.53,-64.63 2069.12,-64.43 2060.71,-57.98 2058.53,-64.63"/>
</g>
<!-- ../../core/src/index.ts&#45;&gt;../../core/src/h.ts -->
<g id="edge50" class="edge">
<title>../../core/src/index.ts&#45;&gt;../../core/src/h.ts</title>
<path fill="none" stroke="#757575" d="M538.98,-365.28C546.82,-331.57 574.52,-234.22 640,-195 1051.98,51.77 1684.6,-225.98 1833.73,-297.9"/>
<polygon fill="#757575" stroke="#757575" points="1832.32,-301.11 1842.84,-302.33 1835.38,-294.81 1832.32,-301.11"/>
</g>
<!-- ../../core/src/index.ts&#45;&gt;../../core/src/createRenderer.ts -->
<g id="edge48" class="edge">
<title>../../core/src/index.ts&#45;&gt;../../core/src/createRenderer.ts</title>
<path fill="none" stroke="#757575" d="M550.99,-365.42C585.69,-337.7 673.74,-267.34 715.44,-234.02"/>
<polygon fill="#757575" stroke="#757575" points="717.74,-236.67 723.37,-227.69 713.37,-231.2 717.74,-236.67"/>
</g>
<!-- ../../observer/src/autorun.ts&#45;&gt;../../observer/src/operations.ts -->
<g id="edge58" class="edge">
<title>../../observer/src/autorun.ts&#45;&gt;../../observer/src/operations.ts</title>
<path fill="none" stroke="#757575" d="M2630.04,-678.45C2665.87,-668.5 2717.76,-654.08 2756.27,-643.38"/>
<polygon fill="#757575" stroke="#757575" points="2757.55,-646.65 2766.25,-640.6 2755.68,-639.91 2757.55,-646.65"/>
</g>
<!-- ../../observer/src/autorun.ts&#45;&gt;../../observer/src/state.ts -->
<g id="edge59" class="edge">
<title>../../observer/src/autorun.ts&#45;&gt;../../observer/src/state.ts</title>
<path fill="none" stroke="#757575" d="M2676.2,-683.37C2690.04,-683.22 2704.36,-683.21 2718.24,-683.35"/>
<polygon fill="#757575" stroke="#757575" points="2718.22,-686.85 2728.26,-683.48 2718.31,-679.85 2718.22,-686.85"/>
</g>
<!-- ../../observer/src/state.ts&#45;&gt;../../observer/src/autorun.ts -->
<g id="edge76" class="edge">
<title>../../observer/src/state.ts&#45;&gt;../../observer/src/autorun.ts</title>
<path fill="none" stroke="#757575" d="M2728.26,-696.52C2714.65,-696.73 2700.37,-696.8 2686.35,-696.71"/>
<polygon fill="#757575" stroke="#757575" points="2686.23,-693.21 2676.2,-696.63 2686.17,-700.21 2686.23,-693.21"/>
</g>
<!-- ../../observer/src/baseHandlers.ts&#45;&gt;../../observer/src/index.ts -->
<g id="edge61" class="edge">
<title>../../observer/src/baseHandlers.ts&#45;&gt;../../observer/src/index.ts</title>
<path fill="none" stroke="#757575" d="M2312.4,-581.53C2287.79,-587.58 2251.52,-594.79 2221,-605 2196.9,-613.06 2171.15,-624.6 2149.96,-634.16"/>
<polygon fill="#757575" stroke="#757575" points="2148.24,-631.1 2140.57,-638.39 2151.12,-637.48 2148.24,-631.1"/>
</g>
<!-- ../../observer/src/baseHandlers.ts&#45;&gt;../../observer/src/autorun.ts -->
<g id="edge60" class="edge">
<title>../../observer/src/baseHandlers.ts&#45;&gt;../../observer/src/autorun.ts</title>
<path fill="none" stroke="#757575" d="M2366.35,-581.51C2409.96,-603 2503.89,-649.29 2553.79,-673.88"/>
<polygon fill="#757575" stroke="#757575" points="2552.35,-677.07 2562.87,-678.35 2555.44,-670.79 2552.35,-677.07"/>
</g>
<!-- ../../observer/src/baseHandlers.ts&#45;&gt;../../observer/src/operations.ts -->
<g id="edge63" class="edge">
<title>../../observer/src/baseHandlers.ts&#45;&gt;../../observer/src/operations.ts</title>
<path fill="none" stroke="#757575" d="M2449.64,-573.79C2515.26,-577.24 2600.88,-583.77 2676,-596 2703.87,-600.54 2734.49,-608.03 2759.22,-614.73"/>
<polygon fill="#757575" stroke="#757575" points="2758.51,-618.17 2769.08,-617.45 2760.37,-611.42 2758.51,-618.17"/>
</g>
<!-- ../../observer/src/baseHandlers.ts&#45;&gt;../../observer/src/lock.ts -->
<g id="edge62" class="edge">
<title>../../observer/src/baseHandlers.ts&#45;&gt;../../observer/src/lock.ts</title>
<path fill="none" stroke="#757575" d="M2415.07,-558.46C2443.17,-553.96 2475.53,-548.77 2504.52,-544.13"/>
<polygon fill="#757575" stroke="#757575" points="2505.29,-547.55 2514.62,-542.51 2504.19,-540.64 2505.29,-547.55"/>
</g>
<!-- ../../observer/src/collectionHandlers.ts&#45;&gt;../../observer/src/index.ts -->
<g id="edge65" class="edge">
<title>../../observer/src/collectionHandlers.ts&#45;&gt;../../observer/src/index.ts</title>
<path fill="none" stroke="#757575" d="M2220.87,-656.75C2212.29,-656.74 2203.72,-656.69 2195.34,-656.59"/>
<polygon fill="#757575" stroke="#757575" points="2195.28,-653.09 2185.23,-656.44 2195.18,-660.09 2195.28,-653.09"/>
</g>
<!-- ../../observer/src/collectionHandlers.ts&#45;&gt;../../observer/src/autorun.ts -->
<g id="edge64" class="edge">
<title>../../observer/src/collectionHandlers.ts&#45;&gt;../../observer/src/autorun.ts</title>
<path fill="none" stroke="#757575" d="M2413.1,-661.52C2442.26,-666.31 2476.27,-671.89 2506.41,-676.84"/>
<polygon fill="#757575" stroke="#757575" points="2506.03,-680.33 2516.47,-678.5 2507.17,-673.42 2506.03,-680.33"/>
</g>
<!-- ../../observer/src/collectionHandlers.ts&#45;&gt;../../observer/src/operations.ts -->
<g id="edge66" class="edge">
<title>../../observer/src/collectionHandlers.ts&#45;&gt;../../observer/src/operations.ts</title>
<path fill="none" stroke="#757575" d="M2463.05,-644.58C2536.79,-641.25 2630.41,-637.02 2701.5,-633.81"/>
<polygon fill="#757575" stroke="#757575" points="2701.99,-637.29 2711.82,-633.34 2701.67,-630.3 2701.99,-637.29"/>
</g>
<!-- ../../observer/src/computed.ts&#45;&gt;../../observer/src/index.ts -->
<g id="edge68" class="edge">
<title>../../observer/src/computed.ts&#45;&gt;../../observer/src/index.ts</title>
<path fill="none" stroke="#757575" d="M2246.33,-684.3C2237.76,-682.88 2229.22,-681.42 2221,-680 2193.37,-675.22 2162.1,-669.6 2138.85,-664.03"/>
<polygon fill="#757575" stroke="#757575" points="2139.64,-660.62 2129.09,-661.56 2137.93,-667.4 2139.64,-660.62"/>
</g>
<!-- ../../observer/src/computed.ts&#45;&gt;../../observer/src/autorun.ts -->
<g id="edge67" class="edge">
<title>../../observer/src/computed.ts&#45;&gt;../../observer/src/autorun.ts</title>
<path fill="none" stroke="#757575" d="M2437.84,-690.61C2454.43,-690.54 2471.72,-690.47 2488.39,-690.4"/>
<polygon fill="#757575" stroke="#757575" points="2488.7,-693.9 2498.68,-690.36 2488.67,-686.9 2488.7,-693.9"/>
</g>
<!-- ../../scheduler/src/index.ts -->
<g id="node23" class="node">
<title>../../scheduler/src/index.ts</title>
<path fill="none" stroke="#cfffac" d="M261.33,-490.5C261.33,-490.5 106.67,-490.5 106.67,-490.5 102.83,-490.5 99,-486.67 99,-482.83 99,-482.83 99,-475.17 99,-475.17 99,-471.33 102.83,-467.5 106.67,-467.5 106.67,-467.5 261.33,-467.5 261.33,-467.5 265.17,-467.5 269,-471.33 269,-475.17 269,-475.17 269,-482.83 269,-482.83 269,-486.67 265.17,-490.5 261.33,-490.5"/>
<text text-anchor="middle" x="184" y="-475.3" font-family="Arial" font-size="14.00" fill="#cfffac">../../scheduler/src/index.ts</text>
</g>
<!-- index.ts -->
<g id="node24" class="node">
<title>index.ts</title>
<path fill="none" stroke="#c6c5fe" d="M55.33,-449.5C55.33,-449.5 7.67,-449.5 7.67,-449.5 3.83,-449.5 0,-445.67 0,-441.83 0,-441.83 0,-434.17 0,-434.17 0,-430.33 3.83,-426.5 7.67,-426.5 7.67,-426.5 55.33,-426.5 55.33,-426.5 59.17,-426.5 63,-430.33 63,-434.17 63,-434.17 63,-441.83 63,-441.83 63,-445.67 59.17,-449.5 55.33,-449.5"/>
<text text-anchor="middle" x="31.5" y="-434.3" font-family="Arial" font-size="14.00" fill="#c6c5fe">index.ts</text>
</g>
<!-- index.ts&#45;&gt;../../core/src/index.ts -->
<g id="edge77" class="edge">
<title>index.ts&#45;&gt;../../core/src/index.ts</title>
<path fill="none" stroke="#757575" d="M40.54,-449.65C51.66,-464.62 73.3,-489.88 99,-500 169.3,-527.69 194.05,-509.56 269,-500 342.78,-490.59 364.31,-490.95 431,-458 463.72,-441.83 495.96,-414.25 515.55,-395.82"/>
<polygon fill="#757575" stroke="#757575" points="518.09,-398.23 522.89,-388.78 513.25,-393.18 518.09,-398.23"/>
</g>
<!-- index.ts&#45;&gt;../../scheduler/src/index.ts -->
<g id="edge78" class="edge">
<title>index.ts&#45;&gt;../../scheduler/src/index.ts</title>
<path fill="none" stroke="#757575" d="M63.2,-447.56C74.43,-450.97 87.26,-454.77 99,-458 107.42,-460.32 116.35,-462.67 125.12,-464.91"/>
<polygon fill="#757575" stroke="#757575" points="124.37,-468.33 134.92,-467.4 126.09,-461.55 124.37,-468.33"/>
</g>
<!-- nodeOps.ts -->
<g id="node25" class="node">
<title>nodeOps.ts</title>
<path fill="none" stroke="#cfffac" d="M219.33,-449.5C219.33,-449.5 148.67,-449.5 148.67,-449.5 144.83,-449.5 141,-445.67 141,-441.83 141,-441.83 141,-434.17 141,-434.17 141,-430.33 144.83,-426.5 148.67,-426.5 148.67,-426.5 219.33,-426.5 219.33,-426.5 223.17,-426.5 227,-430.33 227,-434.17 227,-434.17 227,-441.83 227,-441.83 227,-445.67 223.17,-449.5 219.33,-449.5"/>
<text text-anchor="middle" x="184" y="-434.3" font-family="Arial" font-size="14.00" fill="#cfffac">nodeOps.ts</text>
</g>
<!-- index.ts&#45;&gt;nodeOps.ts -->
<g id="edge79" class="edge">
<title>index.ts&#45;&gt;nodeOps.ts</title>
<path fill="none" stroke="#757575" d="M63.32,-438C82.71,-438 108.23,-438 130.72,-438"/>
<polygon fill="#757575" stroke="#757575" points="130.81,-441.5 140.81,-438 130.81,-434.5 130.81,-441.5"/>
</g>
<!-- patchData.ts -->
<g id="node26" class="node">
<title>patchData.ts</title>
<path fill="none" stroke="#c6c5fe" d="M222.33,-347.5C222.33,-347.5 145.67,-347.5 145.67,-347.5 141.83,-347.5 138,-343.67 138,-339.83 138,-339.83 138,-332.17 138,-332.17 138,-328.33 141.83,-324.5 145.67,-324.5 145.67,-324.5 222.33,-324.5 222.33,-324.5 226.17,-324.5 230,-328.33 230,-332.17 230,-332.17 230,-339.83 230,-339.83 230,-343.67 226.17,-347.5 222.33,-347.5"/>
<text text-anchor="middle" x="184" y="-332.3" font-family="Arial" font-size="14.00" fill="#c6c5fe">patchData.ts</text>
</g>
<!-- index.ts&#45;&gt;patchData.ts -->
<g id="edge80" class="edge">
<title>index.ts&#45;&gt;patchData.ts</title>
<path fill="none" stroke="#757575" d="M42.9,-426.35C55.29,-412.96 77.07,-390.92 99,-376 112.8,-366.61 129.15,-358.28 143.74,-351.69"/>
<polygon fill="#757575" stroke="#757575" points="145.28,-354.84 153.03,-347.61 142.47,-348.42 145.28,-354.84"/>
</g>
<!-- teardownVNode.ts -->
<g id="node27" class="node">
<title>teardownVNode.ts</title>
<path fill="none" stroke="#c6c5fe" d="M240.33,-408.5C240.33,-408.5 127.67,-408.5 127.67,-408.5 123.83,-408.5 120,-404.67 120,-400.83 120,-400.83 120,-393.17 120,-393.17 120,-389.33 123.83,-385.5 127.67,-385.5 127.67,-385.5 240.33,-385.5 240.33,-385.5 244.17,-385.5 248,-389.33 248,-393.17 248,-393.17 248,-400.83 248,-400.83 248,-404.67 244.17,-408.5 240.33,-408.5"/>
<text text-anchor="middle" x="184" y="-393.3" font-family="Arial" font-size="14.00" fill="#c6c5fe">teardownVNode.ts</text>
</g>
<!-- index.ts&#45;&gt;teardownVNode.ts -->
<g id="edge81" class="edge">
<title>index.ts&#45;&gt;teardownVNode.ts</title>
<path fill="none" stroke="#757575" d="M63.15,-427.81C74.38,-424.22 87.21,-420.26 99,-417 106.42,-414.95 114.24,-412.92 122,-410.98"/>
<polygon fill="#757575" stroke="#757575" points="122.89,-414.36 131.77,-408.58 121.22,-407.56 122.89,-414.36"/>
</g>
<!-- patchData.ts&#45;&gt;../../core/src/index.ts -->
<g id="edge84" class="edge">
<title>patchData.ts&#45;&gt;../../core/src/index.ts</title>
<path fill="none" stroke="#757575" d="M201.08,-324.48C223.22,-309.4 264.9,-283.75 305,-274 359.42,-260.77 379.24,-252.63 431,-274 471.7,-290.8 504.81,-332.21 521.9,-357.11"/>
<polygon fill="#757575" stroke="#757575" points="519,-359.07 527.45,-365.46 524.83,-355.19 519,-359.07"/>
</g>
<!-- modules/attrs.ts -->
<g id="node28" class="node">
<title>modules/attrs.ts</title>
<path fill="none" stroke="#cfffac" d="M416.83,-347.5C416.83,-347.5 319.17,-347.5 319.17,-347.5 315.33,-347.5 311.5,-343.67 311.5,-339.83 311.5,-339.83 311.5,-332.17 311.5,-332.17 311.5,-328.33 315.33,-324.5 319.17,-324.5 319.17,-324.5 416.83,-324.5 416.83,-324.5 420.67,-324.5 424.5,-328.33 424.5,-332.17 424.5,-332.17 424.5,-339.83 424.5,-339.83 424.5,-343.67 420.67,-347.5 416.83,-347.5"/>
<text text-anchor="middle" x="368" y="-332.3" font-family="Arial" font-size="14.00" fill="#cfffac">modules/attrs.ts</text>
</g>
<!-- patchData.ts&#45;&gt;modules/attrs.ts -->
<g id="edge85" class="edge">
<title>patchData.ts&#45;&gt;modules/attrs.ts</title>
<path fill="none" stroke="#757575" d="M230.46,-336C251.83,-336 277.71,-336 301.17,-336"/>
<polygon fill="#757575" stroke="#757575" points="301.41,-339.5 311.41,-336 301.41,-332.5 301.41,-339.5"/>
</g>
<!-- modules/class.ts -->
<g id="node29" class="node">
<title>modules/class.ts</title>
<path fill="none" stroke="#cfffac" d="M418.83,-306.5C418.83,-306.5 317.17,-306.5 317.17,-306.5 313.33,-306.5 309.5,-302.67 309.5,-298.83 309.5,-298.83 309.5,-291.17 309.5,-291.17 309.5,-287.33 313.33,-283.5 317.17,-283.5 317.17,-283.5 418.83,-283.5 418.83,-283.5 422.67,-283.5 426.5,-287.33 426.5,-291.17 426.5,-291.17 426.5,-298.83 426.5,-298.83 426.5,-302.67 422.67,-306.5 418.83,-306.5"/>
<text text-anchor="middle" x="368" y="-291.3" font-family="Arial" font-size="14.00" fill="#cfffac">modules/class.ts</text>
</g>
<!-- patchData.ts&#45;&gt;modules/class.ts -->
<g id="edge86" class="edge">
<title>patchData.ts&#45;&gt;modules/class.ts</title>
<path fill="none" stroke="#757575" d="M230.46,-325.76C253.22,-320.63 281.11,-314.35 305.73,-308.8"/>
<polygon fill="#757575" stroke="#757575" points="306.72,-312.17 315.7,-306.56 305.18,-305.34 306.72,-312.17"/>
</g>
<!-- modules/events.ts -->
<g id="node30" class="node">
<title>modules/events.ts</title>
<path fill="none" stroke="#cfffac" d="M423.33,-429.5C423.33,-429.5 312.67,-429.5 312.67,-429.5 308.83,-429.5 305,-425.67 305,-421.83 305,-421.83 305,-414.17 305,-414.17 305,-410.33 308.83,-406.5 312.67,-406.5 312.67,-406.5 423.33,-406.5 423.33,-406.5 427.17,-406.5 431,-410.33 431,-414.17 431,-414.17 431,-421.83 431,-421.83 431,-425.67 427.17,-429.5 423.33,-429.5"/>
<text text-anchor="middle" x="368" y="-414.3" font-family="Arial" font-size="14.00" fill="#cfffac">modules/events.ts</text>
</g>
<!-- patchData.ts&#45;&gt;modules/events.ts -->
<g id="edge87" class="edge">
<title>patchData.ts&#45;&gt;modules/events.ts</title>
<path fill="none" stroke="#757575" d="M210.64,-347.53C227.42,-355.24 249.72,-365.81 269,-376 285.38,-384.66 288.14,-389.32 305,-397 309.6,-399.1 314.47,-401.1 319.39,-402.97"/>
<polygon fill="#757575" stroke="#757575" points="318.23,-406.28 328.82,-406.42 320.63,-399.7 318.23,-406.28"/>
</g>
<!-- modules/props.ts -->
<g id="node31" class="node">
<title>modules/props.ts</title>
<path fill="none" stroke="#c6c5fe" d="M420.33,-226.5C420.33,-226.5 315.67,-226.5 315.67,-226.5 311.83,-226.5 308,-222.67 308,-218.83 308,-218.83 308,-211.17 308,-211.17 308,-207.33 311.83,-203.5 315.67,-203.5 315.67,-203.5 420.33,-203.5 420.33,-203.5 424.17,-203.5 428,-207.33 428,-211.17 428,-211.17 428,-218.83 428,-218.83 428,-222.67 424.17,-226.5 420.33,-226.5"/>
<text text-anchor="middle" x="368" y="-211.3" font-family="Arial" font-size="14.00" fill="#c6c5fe">modules/props.ts</text>
</g>
<!-- patchData.ts&#45;&gt;modules/props.ts -->
<g id="edge88" class="edge">
<title>patchData.ts&#45;&gt;modules/props.ts</title>
<path fill="none" stroke="#757575" d="M197.46,-324.21C218.38,-304.89 262.44,-266.13 305,-241 311.36,-237.25 318.36,-233.76 325.3,-230.64"/>
<polygon fill="#757575" stroke="#757575" points="326.85,-233.78 334.65,-226.62 324.08,-227.35 326.85,-233.78"/>
</g>
<!-- modules/style.ts -->
<g id="node32" class="node">
<title>modules/style.ts</title>
<path fill="none" stroke="#c6c5fe" d="M417.33,-388.5C417.33,-388.5 318.67,-388.5 318.67,-388.5 314.83,-388.5 311,-384.67 311,-380.83 311,-380.83 311,-373.17 311,-373.17 311,-369.33 314.83,-365.5 318.67,-365.5 318.67,-365.5 417.33,-365.5 417.33,-365.5 421.17,-365.5 425,-369.33 425,-373.17 425,-373.17 425,-380.83 425,-380.83 425,-384.67 421.17,-388.5 417.33,-388.5"/>
<text text-anchor="middle" x="368" y="-373.3" font-family="Arial" font-size="14.00" fill="#c6c5fe">modules/style.ts</text>
</g>
<!-- patchData.ts&#45;&gt;modules/style.ts -->
<g id="edge89" class="edge">
<title>patchData.ts&#45;&gt;modules/style.ts</title>
<path fill="none" stroke="#757575" d="M230.46,-346.24C253.22,-351.37 281.11,-357.65 305.73,-363.2"/>
<polygon fill="#757575" stroke="#757575" points="305.18,-366.66 315.7,-365.44 306.72,-359.83 305.18,-366.66"/>
</g>
<!-- teardownVNode.ts&#45;&gt;../../core/src/index.ts -->
<g id="edge90" class="edge">
<title>teardownVNode.ts&#45;&gt;../../core/src/index.ts</title>
<path fill="none" stroke="#757575" d="M243.53,-408.58C252.2,-410.97 260.93,-413.77 269,-417 286.2,-423.89 287.12,-433.17 305,-438 359.06,-452.61 376.97,-452.74 431,-438 461.67,-429.63 492.52,-409.6 512.45,-394.76"/>
<polygon fill="#757575" stroke="#757575" points="514.73,-397.43 520.55,-388.57 510.48,-391.87 514.73,-397.43"/>
</g>
<!-- teardownVNode.ts&#45;&gt;modules/events.ts -->
<g id="edge91" class="edge">
<title>teardownVNode.ts&#45;&gt;modules/events.ts</title>
<path fill="none" stroke="#757575" d="M248.14,-404.29C263.22,-406.03 279.42,-407.9 294.87,-409.68"/>
<polygon fill="#757575" stroke="#757575" points="294.55,-413.16 304.89,-410.83 295.36,-406.21 294.55,-413.16"/>
</g>
<!-- modules/props.ts&#45;&gt;../../core/src/index.ts -->
<g id="edge82" class="edge">
<title>modules/props.ts&#45;&gt;../../core/src/index.ts</title>
<path fill="none" stroke="#757575" d="M405.5,-226.59C414.35,-230.37 423.43,-235.14 431,-241 472.95,-273.47 506.79,-326.92 523.38,-356.21"/>
<polygon fill="#757575" stroke="#757575" points="520.43,-358.1 528.34,-365.15 526.55,-354.71 520.43,-358.1"/>
</g>
<!-- modules/style.ts&#45;&gt;../../core/src/index.ts -->
<g id="edge83" class="edge">
<title>modules/style.ts&#45;&gt;../../core/src/index.ts</title>
<path fill="none" stroke="#757575" d="M425.03,-377C435.19,-377 445.96,-377 456.61,-377"/>
<polygon fill="#757575" stroke="#757575" points="456.77,-380.5 466.77,-377 456.77,-373.5 456.77,-380.5"/>
</g>
</g>
</svg>
